<?xml version="1.0" encoding="UTF-8"?>
<svg version="1.1" xmlns="http://www.w3.org/2000/svg" width="457" height="286">
<path d="M0 0 C150.81 0 301.62 0 457 0 C457 94.38 457 188.76 457 286 C306.19 286 155.38 286 0 286 C0 191.62 0 97.24 0 0 Z " fill="#FDFEFE" transform="translate(0,0)"/>
<path d="M0 0 C2.06686552 0.00315404 4.13228526 -0.02036994 6.19897461 -0.0456543 C36.80904239 -0.19336054 65.33536301 13.45575268 86.95483398 34.56567383 C107.54160169 55.37024223 120.06877272 83.71776377 120.47167969 113.08520508 C120.44967022 116.16270317 120.3512367 119.23924095 120.26733398 122.31567383 C129.50733398 122.31567383 138.74733398 122.31567383 148.26733398 122.31567383 C148.26733398 124.62567383 148.26733398 126.93567383 148.26733398 129.31567383 C147.60733398 129.31567383 146.94733398 129.31567383 146.26733398 129.31567383 C146.08428711 128.67114258 145.90124023 128.02661133 145.71264648 127.36254883 C144.35921504 124.94122438 144.35921504 124.94122438 141.00952148 124.70629883 C139.09526367 124.63668945 139.09526367 124.63668945 137.14233398 124.56567383 C135.2203418 124.4805957 135.2203418 124.4805957 133.25952148 124.39379883 C132.27209961 124.36801758 131.28467773 124.34223633 130.26733398 124.31567383 C130.26733398 128.60567383 130.26733398 132.89567383 130.26733398 137.31567383 C134.22733398 136.98567383 138.18733398 136.65567383 142.26733398 136.31567383 C142.59733398 135.32567383 142.92733398 134.33567383 143.26733398 133.31567383 C143.92733398 133.31567383 144.58733398 133.31567383 145.26733398 133.31567383 C145.26733398 136.94567383 145.26733398 140.57567383 145.26733398 144.31567383 C144.60733398 144.31567383 143.94733398 144.31567383 143.26733398 144.31567383 C142.94635742 143.34887695 142.94635742 143.34887695 142.61889648 142.36254883 C141.41998169 140.03728268 141.41998169 140.03728268 138.66577148 139.70629883 C137.66803711 139.65989258 136.67030273 139.61348633 135.64233398 139.56567383 C133.86858398 139.48317383 132.09483398 139.40067383 130.26733398 139.31567383 C130.26733398 143.93567383 130.26733398 148.55567383 130.26733398 153.31567383 C132.70850023 153.28264452 135.1405191 153.21553221 137.57983398 153.12817383 C138.61527344 153.11947266 138.61527344 153.11947266 139.67163086 153.1105957 C141.96896658 153.06176925 141.96896658 153.06176925 145.26733398 152.31567383 C147.16528766 149.87679137 147.16528766 149.87679137 148.26733398 147.31567383 C148.92733398 147.31567383 149.58733398 147.31567383 150.26733398 147.31567383 C149.93733398 150.28567383 149.60733398 153.25567383 149.26733398 156.31567383 C138.37733398 156.31567383 127.48733398 156.31567383 116.26733398 156.31567383 C116.26733398 155.65567383 116.26733398 154.99567383 116.26733398 154.31567383 C118.74233398 153.32567383 118.74233398 153.32567383 121.26733398 152.31567383 C121.26733398 143.40567383 121.26733398 134.49567383 121.26733398 125.31567383 C119.45671732 127.12629049 119.77949337 129.70967243 119.46948242 132.14331055 C115.41302247 162.95424296 99.55514061 190.01602678 75.65014648 209.69848633 C73.26733398 211.31567383 73.26733398 211.31567383 70.26733398 211.31567383 C71.84230671 208.69071929 73.41730737 206.06578157 74.99243164 203.44091797 C76.35195902 201.1747658 77.71100186 198.90832289 79.06958008 196.64160156 C82.28826056 191.27216305 85.51167882 185.90583495 88.75952148 180.55395508 C89.2909375 179.67578125 89.82235352 178.79760742 90.36987305 177.89282227 C91.35050721 176.27310901 92.33401091 174.65512787 93.32104492 173.03930664 C96.60888669 167.59890801 99.47876226 162.02872239 102.26733398 156.31567383 C98.30733398 156.31567383 94.34733398 156.31567383 90.26733398 156.31567383 C90.26733398 155.65567383 90.26733398 154.99567383 90.26733398 154.31567383 C91.58733398 153.98567383 92.90733398 153.65567383 94.26733398 153.31567383 C94.43715945 141.77829855 94.43715945 141.77829855 93.26733398 130.31567383 C92.26063358 132.58374587 91.26181632 134.85475137 90.26733398 137.12817383 C89.98116211 137.77077148 89.69499023 138.41336914 89.40014648 139.07543945 C88.13022358 141.99323851 87.26733398 144.09833096 87.26733398 147.31567383 C88.58733398 147.97567383 89.90733398 148.63567383 91.26733398 149.31567383 C90.60733398 150.96567383 89.94733398 152.61567383 89.26733398 154.31567383 C87.28733398 153.98567383 85.30733398 153.65567383 83.26733398 153.31567383 C82.93733398 154.30567383 82.60733398 155.29567383 82.26733398 156.31567383 C78.59386525 155.09118425 77.94472274 153.50503449 76.16577148 150.19458008 C74.94595197 147.64356623 74.14589923 145.00304988 73.26733398 142.31567383 C71.65629213 138.62306362 69.96956509 134.96702451 68.26733398 131.31567383 C67.0903335 135.94026627 67.15324986 140.39433845 67.20483398 145.12817383 C67.21160156 146.31056641 67.21160156 146.31056641 67.21850586 147.5168457 C67.23022086 149.44982144 67.248154 151.38275775 67.26733398 153.31567383 C68.25733398 153.64567383 69.24733398 153.97567383 70.26733398 154.31567383 C70.26733398 154.97567383 70.26733398 155.63567383 70.26733398 156.31567383 C66.30733398 156.31567383 62.34733398 156.31567383 58.26733398 156.31567383 C58.26733398 155.65567383 58.26733398 154.99567383 58.26733398 154.31567383 C58.91186523 154.11458008 59.55639648 153.91348633 60.22045898 153.70629883 C62.56900356 152.45319838 62.56900356 152.45319838 62.87670898 149.55004883 C62.92311523 148.40020508 62.96952148 147.25036133 63.01733398 146.06567383 C63.07276367 144.82043945 63.12819336 143.57520508 63.18530273 142.29223633 C63.30895378 136.29810457 63.34933802 130.3110799 63.26733398 124.31567383 C62.27733398 123.98567383 61.28733398 123.65567383 60.26733398 123.31567383 C60.26733398 122.65567383 60.26733398 121.99567383 60.26733398 121.31567383 C64.22733398 121.31567383 68.18733398 121.31567383 72.26733398 121.31567383 C73.56407 123.85486389 74.85481235 126.39681621 76.14233398 128.94067383 C76.50713867 129.65352539 76.87194336 130.36637695 77.24780273 131.10083008 C79.26734326 135.1031922 80.97544509 139.00484456 82.26733398 143.31567383 C82.92733398 143.31567383 83.58733398 143.31567383 84.26733398 143.31567383 C84.63858398 142.09879883 85.00983398 140.88192383 85.39233398 139.62817383 C87.48757895 133.29182915 90.39522933 127.32943341 93.26733398 121.31567383 C97.22733398 121.31567383 101.18733398 121.31567383 105.26733398 121.31567383 C105.26733398 121.97567383 105.26733398 122.63567383 105.26733398 123.31567383 C104.27733398 123.81067383 104.27733398 123.81067383 103.26733398 124.31567383 C103.24015082 127.16990575 103.22040694 130.02387398 103.20483398 132.87817383 C103.19645508 133.67803711 103.18807617 134.47790039 103.17944336 135.30200195 C103.15991151 140.08730487 103.4629638 144.59712434 104.26733398 149.31567383 C104.9200586 146.98408079 105.564586 144.65069587 106.20483398 142.31567383 C106.38723633 141.66727539 106.56963867 141.01887695 106.75756836 140.35083008 C113.88199699 114.18474675 107.78937324 85.15611766 94.54077148 61.96020508 C90.71524884 55.62130381 86.06899451 49.93216159 81.26733398 44.31567383 C80.68467773 43.62989258 80.10202148 42.94411133 79.50170898 42.23754883 C73.98859064 36.27892597 66.95445319 31.84110182 60.26733398 27.31567383 C59.42041992 26.73430664 58.57350586 26.15293945 57.70092773 25.55395508 C50.42259569 20.86183239 42.45087379 17.98863161 34.26733398 15.31567383 C32.39174805 14.68918945 32.39174805 14.68918945 30.47827148 14.05004883 C4.84458812 6.37589772 -24.8010977 10.55663201 -48.1730957 23.08422852 C-73.95677436 37.56863156 -91.38358867 59.6888656 -99.90844727 87.92504883 C-102.22490571 97.45436603 -103.1325288 106.63538703 -103.15820312 116.4206543 C-103.17007638 118.5496016 -103.21940489 120.67561717 -103.26977539 122.80395508 C-103.46074167 139.11077917 -98.34439669 153.59940662 -86.98266602 165.56567383 C-76.19182348 175.84036246 -64.597269 179.90673525 -49.79516602 179.69067383 C-48.26629761 179.67870972 -48.26629761 179.67870972 -46.70654297 179.66650391 C-29.72784641 179.36251123 -12.87095669 177.09344603 3.84667969 174.24145508 C22.19024446 171.26428081 22.19024446 171.26428081 28.26733398 175.31567383 C27.84623373 180.68470208 26.92599347 183.37993858 23.26733398 187.31567383 C15.85176165 192.22648546 7.01573309 195.01767594 -1.32080078 197.95581055 C-2.10769287 198.23440918 -2.89458496 198.51300781 -3.70532227 198.80004883 C-4.40923096 199.04464844 -5.11313965 199.28924805 -5.83837891 199.54125977 C-8.0051098 200.3538764 -8.0051098 200.3538764 -10.73266602 202.31567383 C-10.98297579 204.8994756 -10.98297579 204.8994756 -10.73266602 207.31567383 C-3.9144076 209.58842663 5.53826 209.50441171 12.20483398 206.69067383 C14.30867539 205.59063261 14.30867539 205.59063261 16.26733398 204.31567383 C16.90541992 203.91477539 17.54350586 203.51387695 18.20092773 203.10083008 C27.15207357 196.88725802 34.52231578 188.47751961 41.16967773 179.93286133 C47.01228922 172.6431971 53.17491898 165.13668702 61.26733398 160.31567383 C61.92733398 160.31567383 62.58733398 160.31567383 63.26733398 160.31567383 C61.2889197 177.94154656 50.55767197 194.12405232 39.26733398 207.31567383 C38.47649414 208.34047852 38.47649414 208.34047852 37.66967773 209.38598633 C28.30675969 221.11838977 14.09410527 228.49420315 -0.73266602 230.31567383 C-28.77479682 231.95659266 -53.44947306 223.6542569 -74.73266602 205.31567383 C-75.4171582 204.76395508 -76.10165039 204.21223633 -76.80688477 203.64379883 C-96.62515053 187.2908094 -111.16213945 159.52312301 -113.98266602 134.12817383 C-117.05391692 101.78174643 -110.9560708 70.12145913 -90.09448242 44.35083008 C-67.16273789 17.04400194 -36.1849187 -0.11498091 0 0 Z " fill="#343948" transform="translate(122.732666015625,37.684326171875)"/>
<path d="M0 0 C28.23590338 12.9761918 50.40869566 35.05661307 61.72265625 64.31640625 C67.44907644 80.03740728 69.45440469 95.33849476 69 112 C78.24 112 87.48 112 97 112 C97 114.31 97 116.62 97 119 C96.34 119 95.68 119 95 119 C94.81695312 118.35546875 94.63390625 117.7109375 94.4453125 117.046875 C93.09188105 114.62555056 93.09188105 114.62555056 89.7421875 114.390625 C87.82792969 114.32101563 87.82792969 114.32101563 85.875 114.25 C83.95300781 114.16492188 83.95300781 114.16492188 81.9921875 114.078125 C81.00476563 114.05234375 80.01734375 114.0265625 79 114 C79 118.29 79 122.58 79 127 C84.94 126.505 84.94 126.505 91 126 C91.495 124.515 91.495 124.515 92 123 C92.66 123 93.32 123 94 123 C94 126.63 94 130.26 94 134 C93.34 134 92.68 134 92 134 C91.78601563 133.35546875 91.57203125 132.7109375 91.3515625 132.046875 C90.1526477 129.72160885 90.1526477 129.72160885 87.3984375 129.390625 C86.40070313 129.34421875 85.40296875 129.2978125 84.375 129.25 C82.60125 129.1675 80.8275 129.085 79 129 C79 133.62 79 138.24 79 143 C81.44116625 142.96697069 83.87318511 142.89985838 86.3125 142.8125 C87.34793945 142.80379883 87.34793945 142.80379883 88.40429688 142.79492188 C90.7016326 142.74609542 90.7016326 142.74609542 94 142 C95.89795367 139.56111754 95.89795367 139.56111754 97 137 C97.66 137 98.32 137 99 137 C98.67 139.97 98.34 142.94 98 146 C87.11 146 76.22 146 65 146 C65 145.34 65 144.68 65 144 C66.65 143.34 68.3 142.68 70 142 C70 133.09 70 124.18 70 115 C68.18938333 116.81061667 68.51215938 119.3939986 68.20214844 121.82763672 C64.14568848 152.63856913 48.28780663 179.70035295 24.3828125 199.3828125 C22 201 22 201 19 201 C20.57497272 198.37504546 22.14997338 195.75010774 23.72509766 193.12524414 C25.08462504 190.85909198 26.44366788 188.59264906 27.80224609 186.32592773 C31.02092658 180.95648922 34.24434483 175.59016113 37.4921875 170.23828125 C38.02360352 169.36010742 38.55501953 168.48193359 39.10253906 167.57714844 C40.08317322 165.95743519 41.06667693 164.33945404 42.05371094 162.72363281 C45.34155271 157.28323419 48.21142828 151.71304856 51 146 C47.04 146 43.08 146 39 146 C39 145.34 39 144.68 39 144 C40.32 143.67 41.64 143.34 43 143 C43.16982546 131.46262472 43.16982546 131.46262472 42 120 C40.9932996 122.26807204 39.99448234 124.53907754 39 126.8125 C38.71382812 127.45509766 38.42765625 128.09769531 38.1328125 128.75976562 C36.86288959 131.67756469 36 133.78265714 36 137 C37.32 137.66 38.64 138.32 40 139 C39.34 140.65 38.68 142.3 38 144 C36.02 143.67 34.04 143.34 32 143 C31.67 143.99 31.34 144.98 31 146 C27.32653126 144.77551042 26.67738876 143.18936066 24.8984375 139.87890625 C23.67861799 137.3278924 22.87856525 134.68737605 22 132 C20.38895815 128.30738979 18.7022311 124.65135069 17 121 C15.82299952 125.62459244 15.88591588 130.07866462 15.9375 134.8125 C15.94201172 135.60076172 15.94652344 136.38902344 15.95117188 137.20117188 C15.96288688 139.13414761 15.98082002 141.06708393 16 143 C16.99 143.33 17.98 143.66 19 144 C19 144.66 19 145.32 19 146 C15.04 146 11.08 146 7 146 C7 145.34 7 144.68 7 144 C7.64453125 143.79890625 8.2890625 143.5978125 8.953125 143.390625 C11.30166957 142.13752455 11.30166957 142.13752455 11.609375 139.234375 C11.65578125 138.08453125 11.7021875 136.9346875 11.75 135.75 C11.80542969 134.50476563 11.86085937 133.25953125 11.91796875 131.9765625 C12.0416198 125.98243074 12.08200403 119.99540607 12 114 C10.515 113.505 10.515 113.505 9 113 C9 112.34 9 111.68 9 111 C12.96 111 16.92 111 21 111 C22.29673602 113.53919006 23.58747837 116.08114238 24.875 118.625 C25.23980469 119.33785156 25.60460937 120.05070312 25.98046875 120.78515625 C28.00000927 124.78751837 29.7081111 128.68917073 31 133 C31.66 133 32.32 133 33 133 C33.37125 131.783125 33.7425 130.56625 34.125 129.3125 C36.22024496 122.97615532 39.12789535 117.01375958 42 111 C45.96 111 49.92 111 54 111 C54 111.66 54 112.32 54 113 C53.01 113.495 53.01 113.495 52 114 C51.97281684 116.85423192 51.95307295 119.70820015 51.9375 122.5625 C51.92493164 123.76229492 51.92493164 123.76229492 51.91210938 124.98632812 C51.89257753 129.77163104 52.19562982 134.28145051 53 139 C53.65272461 136.66840696 54.29725202 134.33502204 54.9375 132 C55.11990234 131.35160156 55.30230469 130.70320312 55.49023438 130.03515625 C62.614663 103.86907292 56.52203925 74.84044383 43.2734375 51.64453125 C39.44791485 45.30562999 34.80166053 39.61648777 30 34 C29.41734375 33.31421875 28.8346875 32.6284375 28.234375 31.921875 C17.11244974 19.90120831 1.17787245 11.37648773 -14 6 C-11.01386614 5.24070528 -8.02485781 4.5881668 -5 4 C-5.33 4.66 -5.66 5.32 -6 6 C-5.34 6.33 -4.68 6.66 -4 7 C-3.71125 6.401875 -3.4225 5.80375 -3.125 5.1875 C-2 3 -2 3 0 0 Z " fill="#373C4A" transform="translate(174,48)"/>
<path d="M0 0 C-1.44253657 3.36591866 -3.33264727 5.51047079 -6 8 C-4.84334366 10.83906556 -3.81179364 12.16395891 -1.453125 14.21875 C2.29739236 18.47092892 1.66552187 22.4596737 1.41796875 27.8359375 C-0.8967516 55.52180834 -16.49002246 83.23395023 -36.90234375 101.61328125 C-44.46111975 108 -44.46111975 108 -48 108 C-46.42502728 105.37504546 -44.85002662 102.75010774 -43.27490234 100.12524414 C-41.91537496 97.85909198 -40.55633212 95.59264906 -39.19775391 93.32592773 C-35.97907342 87.95648922 -32.75565517 82.59016113 -29.5078125 77.23828125 C-28.97639648 76.36010742 -28.44498047 75.48193359 -27.89746094 74.57714844 C-26.91682678 72.95743519 -25.93332307 71.33945404 -24.94628906 69.72363281 C-21.65844729 64.28323419 -18.78857172 58.71304856 -16 53 C-19.96 53 -23.92 53 -28 53 C-28 52.34 -28 51.68 -28 51 C-26.02 50.505 -26.02 50.505 -24 50 C-23.83017454 38.46262472 -23.83017454 38.46262472 -25 27 C-26.0067004 29.26807204 -27.00551766 31.53907754 -28 33.8125 C-28.28617188 34.45509766 -28.57234375 35.09769531 -28.8671875 35.75976562 C-30.13711041 38.67756469 -31 40.78265714 -31 44 C-29.68 44.66 -28.36 45.32 -27 46 C-27.66 47.65 -28.32 49.3 -29 51 C-30.98 50.67 -32.96 50.34 -35 50 C-35.33 50.99 -35.66 51.98 -36 53 C-39.67346874 51.77551042 -40.32261124 50.18936066 -42.1015625 46.87890625 C-43.32138201 44.3278924 -44.12143475 41.68737605 -45 39 C-46.61104185 35.30738979 -48.2977689 31.65135069 -50 28 C-51.17700048 32.62459244 -51.11408412 37.07866462 -51.0625 41.8125 C-51.05798828 42.60076172 -51.05347656 43.38902344 -51.04882812 44.20117188 C-51.03711312 46.13414761 -51.01917998 48.06708393 -51 50 C-50.01 50.33 -49.02 50.66 -48 51 C-48 51.66 -48 52.32 -48 53 C-51.96 53 -55.92 53 -60 53 C-60 52.34 -60 51.68 -60 51 C-59.03320312 50.69835937 -59.03320312 50.69835937 -58.046875 50.390625 C-55.69833043 49.13752455 -55.69833043 49.13752455 -55.390625 46.234375 C-55.34421875 45.08453125 -55.2978125 43.9346875 -55.25 42.75 C-55.19457031 41.50476563 -55.13914063 40.25953125 -55.08203125 38.9765625 C-54.9583802 32.98243074 -54.91799597 26.99540607 -55 21 C-55.99 20.67 -56.98 20.34 -58 20 C-58 19.34 -58 18.68 -58 18 C-54.04 18 -50.08 18 -46 18 C-44.70326398 20.53919006 -43.41252163 23.08114238 -42.125 25.625 C-41.76019531 26.33785156 -41.39539063 27.05070312 -41.01953125 27.78515625 C-38.99999073 31.78751837 -37.2918889 35.68917073 -36 40 C-35.34 40 -34.68 40 -34 40 C-33.62875 38.783125 -33.2575 37.56625 -32.875 36.3125 C-30.77975504 29.97615532 -27.87210465 24.01375958 -25 18 C-21.04 18 -17.08 18 -13 18 C-13 18.66 -13 19.32 -13 20 C-13.99 20.495 -13.99 20.495 -15 21 C-15.02718316 23.85423192 -15.04692705 26.70820015 -15.0625 29.5625 C-15.07506836 30.76229492 -15.07506836 30.76229492 -15.08789062 31.98632812 C-15.10742247 36.77163104 -14.80437018 41.28145051 -14 46 C-10.63087379 35.79449148 -9.34437016 26.13360193 -9.03564453 15.390625 C-8.71899237 9.2073086 -7.80317148 5.6473207 -3.46826172 1.12695312 C-2 0 -2 0 0 0 Z " fill="#333948" transform="translate(241,141)"/>
<path d="M0 0 C0.33 0 0.66 0 1 0 C1.16604736 1.43835205 1.16604736 1.43835205 1.33544922 2.90576172 C1.74794698 6.45890723 2.17180051 10.01062096 2.59912109 13.56201172 C2.78256942 15.10005545 2.9629247 16.63847135 3.14013672 18.17724609 C3.39521422 20.38744277 3.66134052 22.59606769 3.9296875 24.8046875 C4.00686005 25.49432587 4.08403259 26.18396423 4.1635437 26.89450073 C4.60648684 30.8780464 4.60648684 30.8780464 7 34 C8.85046678 34.44259312 8.85046678 34.44259312 10.99072266 34.59423828 C11.81142242 34.67417023 12.63212219 34.75410217 13.47769165 34.8364563 C14.80744522 34.95221512 14.80744522 34.95221512 16.1640625 35.0703125 C17.52487442 35.19924393 17.52487442 35.19924393 18.91317749 35.33078003 C21.81640782 35.60390362 24.72060502 35.86458282 27.625 36.125 C29.59122198 36.30777648 31.55736911 36.49135997 33.5234375 36.67578125 C38.34813916 37.1265632 43.17374425 37.56618635 48 38 C48 38.33 48 38.66 48 39 C46.73293213 39.11593506 45.46586426 39.23187012 44.16040039 39.35131836 C39.47670864 39.7810554 34.79357728 40.21665017 30.1105957 40.65405273 C28.08047134 40.84283723 26.05019691 41.0300149 24.01977539 41.21557617 C21.10782943 41.48197767 18.19646524 41.75408026 15.28515625 42.02734375 C14.3716188 42.10967758 13.45808136 42.19201141 12.51686096 42.27684021 C8.42483768 42.29102861 8.42483768 42.29102861 5 44 C6.77074917 44.02705729 8.54161711 44.04642195 10.3125 44.0625 C11.29863281 44.07410156 12.28476563 44.08570313 13.30078125 44.09765625 C16.09963849 44.12329862 16.09963849 44.12329862 19 43 C19 46.63 19 50.26 19 54 C18.34 54 17.68 54 17 54 C16.34 52.02 15.68 50.04 15 48 C11.7 47.67 8.4 47.34 5 47 C5 56.57 5 66.14 5 76 C6.98 76.33 8.96 76.66 11 77 C11 77.66 11 78.32 11 79 C4.4 79 -2.2 79 -9 79 C-9 78.34 -9 77.68 -9 77 C-6.525 76.01 -6.525 76.01 -4 75 C-3.67 65.76 -3.34 56.52 -3 47 C-7.95 47.495 -7.95 47.495 -13 48 C-15.23886732 50.88679844 -15.23886732 50.88679844 -16 54 C-16.66 54 -17.32 54 -18 54 C-18.125 46.375 -18.125 46.375 -17 43 C-16.01 43.33 -15.02 43.66 -14 44 C-12.27204648 44.06802967 -10.54164635 44.08495645 -8.8125 44.0625 C-7.91144531 44.05347656 -7.01039062 44.04445312 -6.08203125 44.03515625 C-5.39496094 44.02355469 -4.70789063 44.01195312 -4 44 C-4.48726562 43.566875 -4.97453125 43.13375 -5.4765625 42.6875 C-7 41 -7 41 -7.375 38 C-7 35 -7 35 -5.53369141 33.72070312 C-3.24957434 31.15807067 -3.38280247 28.85014815 -3.0859375 25.46875 C-2.96476562 24.18355469 -2.84359375 22.89835937 -2.71875 21.57421875 C-2.603536 20.21619919 -2.48895951 18.85812541 -2.375 17.5 C-2.13813897 14.84322987 -1.89352802 12.18728527 -1.6484375 9.53125 C-1.54708496 8.35111328 -1.44573242 7.17097656 -1.34130859 5.95507812 C-1 3 -1 3 0 0 Z " fill="#0895D5" transform="translate(124,115)"/>
<path d="M0 0 C4.95 0 9.9 0 15 0 C14.67 1.65 14.34 3.3 14 5 C14.66097728 7.33347434 14.66097728 7.33347434 15.87109375 9.57421875 C16.28037109 10.40630859 16.68964844 11.23839844 17.11132812 12.09570312 C17.7677832 13.37864258 17.7677832 13.37864258 18.4375 14.6875 C19.29347846 16.39818503 20.14649752 18.11035509 20.99609375 19.82421875 C21.37950928 20.57791748 21.7629248 21.33161621 22.15795898 22.1081543 C23 24 23 24 23 26 C23.66 26 24.32 26 25 26 C27.07131963 17.99089743 24.52838525 12.81463522 20.76171875 5.84375 C19.30241187 2.93252859 19.30241187 2.93252859 17 2 C17 1.34 17 0.68 17 0 C25.25 0 33.5 0 42 0 C42 0.66 42 1.32 42 2 C41.13375 2.7734375 41.13375 2.7734375 40.25 3.5625 C37.10801284 6.96631942 34.93022703 10.41638134 34 15 C34.68183646 17.44047561 35.62432033 19.24062836 36.984375 21.37109375 C38 23 38 23 38 25 C38.66 25 39.32 25 40 25 C40.17015625 24.42894531 40.3403125 23.85789063 40.515625 23.26953125 C42.63828394 16.1676564 44.81313332 9.08233982 47 2 C46.01 2 45.02 2 44 2 C44 1.34 44 0.68 44 0 C47.96 0 51.92 0 56 0 C56 0.66 56 1.32 56 2 C55.08541016 2.31130859 55.08541016 2.31130859 54.15234375 2.62890625 C51.11828344 4.56167425 50.72065249 6.56723618 49.5625 9.9375 C47.64642914 15.27302038 45.52239285 20.40285704 43.13671875 25.54296875 C41.69067687 28.66860566 40.33950082 31.82749807 39 35 C36.75 35 36.75 35 34 34 C31.94304343 31.00985547 30 27.686098 30 24 C29.34 24 28.68 24 28 24 C27.79503906 24.62648437 27.59007812 25.25296875 27.37890625 25.8984375 C27.10949219 26.71570313 26.84007812 27.53296875 26.5625 28.375 C26.29566406 29.18710938 26.02882813 29.99921875 25.75390625 30.8359375 C25 33 25 33 24 35 C22.35 35 20.7 35 19 35 C18.56655273 34.0713916 18.13310547 33.1427832 17.68652344 32.18603516 C16.07389569 28.73977654 14.44497372 25.30143372 12.81103516 21.86523438 C12.10637255 20.37743315 11.40613661 18.88752689 10.71044922 17.39550781 C9.70918923 15.25015474 8.69220916 13.11289695 7.671875 10.9765625 C7.21068268 9.97491562 7.21068268 9.97491562 6.74017334 8.95303345 C5.38561306 6.15147177 4.42246311 4.27211213 1.77050781 2.56396484 C1.18624023 2.37785645 0.60197266 2.19174805 0 2 C0 1.34 0 0.68 0 0 Z " fill="#383D4B" transform="translate(282,159)"/>
<path d="M0 0 C3.96 0 7.92 0 12 0 C13.29673602 2.53919006 14.58747837 5.08114238 15.875 7.625 C16.23980469 8.33785156 16.60460937 9.05070313 16.98046875 9.78515625 C19.00000927 13.78751837 20.7081111 17.68917073 22 22 C22.66 22 23.32 22 24 22 C24.37125 20.783125 24.7425 19.56625 25.125 18.3125 C27.22024496 11.97615532 30.12789535 6.01375958 33 0 C36.96 0 40.92 0 45 0 C45 0.66 45 1.32 45 2 C44.34 2.33 43.68 2.66 43 3 C42.89944018 13.05598201 42.90054108 22.98707052 44 33 C45.32 33 46.64 33 48 33 C48 33.66 48 34.32 48 35 C42.06 35 36.12 35 30 35 C30 34.34 30 33.68 30 33 C31.98 32.505 31.98 32.505 34 32 C34.16982546 20.46262472 34.16982546 20.46262472 33 9 C31.9932996 11.26807204 30.99448234 13.53907754 30 15.8125 C29.57074219 16.77639648 29.57074219 16.77639648 29.1328125 17.75976562 C27.86288959 20.67756469 27 22.78265714 27 26 C28.32 26.66 29.64 27.32 31 28 C30.34 29.65 29.68 31.3 29 33 C27.02 32.67 25.04 32.34 23 32 C22.67 32.99 22.34 33.98 22 35 C18.32653126 33.77551042 17.67738876 32.18936066 15.8984375 28.87890625 C14.67861799 26.3278924 13.87856525 23.68737605 13 21 C11.38895815 17.30738979 9.7022311 13.65135069 8 10 C6.82299952 14.62459244 6.88591588 19.07866462 6.9375 23.8125 C6.94201172 24.60076172 6.94652344 25.38902344 6.95117188 26.20117188 C6.96288688 28.13414761 6.98082002 30.06708393 7 32 C7.99 32.33 8.98 32.66 10 33 C10 33.66 10 34.32 10 35 C6.04 35 2.08 35 -2 35 C-2 34.34 -2 33.68 -2 33 C-1.03320312 32.69835937 -1.03320312 32.69835937 -0.046875 32.390625 C2.30166957 31.13752455 2.30166957 31.13752455 2.609375 28.234375 C2.65578125 27.08453125 2.7021875 25.9346875 2.75 24.75 C2.80542969 23.50476563 2.86085937 22.25953125 2.91796875 20.9765625 C3.0416198 14.98243074 3.08200403 8.99540607 3 3 C2.01 2.67 1.02 2.34 0 2 C0 1.34 0 0.68 0 0 Z " fill="#1B99D0" transform="translate(183,159)"/>
<path d="M0 0 C2.61376953 -0.34057617 2.61376953 -0.34057617 5.8828125 -0.29296875 C7.04941406 -0.28330078 8.21601563 -0.27363281 9.41796875 -0.26367188 C10.64128906 -0.23853516 11.86460937 -0.21339844 13.125 -0.1875 C14.35605469 -0.17396484 15.58710938 -0.16042969 16.85546875 -0.14648438 C19.90407843 -0.11103543 22.951825 -0.06162079 26 0 C26 3.3 26 6.6 26 10 C28.31 10 30.62 10 33 10 C33 10.33 33 10.66 33 11 C29.04 11 25.08 11 21 11 C20.62875 12.216875 20.2575 13.43375 19.875 14.6875 C17.77975504 21.02384468 14.87210465 26.98624042 12 33 C11.34 33 10.68 33 10 33 C9.75991211 32.36908447 9.51982422 31.73816895 9.27246094 31.08813477 C5.21132816 18.9051099 5.21132816 18.9051099 -3.3359375 10.3828125 C-6.4142273 10.20001619 -8.9987334 10.31414354 -12 11 C-12 11.66 -12 12.32 -12 13 C-10.68 13.33 -9.36 13.66 -8 14 C-8 18.62 -8 23.24 -8 28 C-8.33 28 -8.66 28 -9 28 C-9 23.71 -9 19.42 -9 15 C-10.65 14.67 -12.3 14.34 -14 14 C-13.625 12.0625 -13.625 12.0625 -13 10 C-10.47524538 8.73762269 -8.68799534 8.90143596 -5.875 8.9375 C-4.96492187 8.94652344 -4.05484375 8.95554688 -3.1171875 8.96484375 C-2.41851562 8.97644531 -1.71984375 8.98804688 -1 9 C-1.20625 8.071875 -1.4125 7.14375 -1.625 6.1875 C-2 3 -2 3 0 0 Z " fill="#F2FCFD" transform="translate(195,148)"/>
<path d="M0 0 C10.23 0 20.46 0 31 0 C31 2.31 31 4.62 31 7 C30.34 7 29.68 7 29 7 C28.81695312 6.35546875 28.63390625 5.7109375 28.4453125 5.046875 C27.09188105 2.62555056 27.09188105 2.62555056 23.7421875 2.390625 C22.46601563 2.34421875 21.18984375 2.2978125 19.875 2.25 C17.95300781 2.16492188 17.95300781 2.16492188 15.9921875 2.078125 C15.00476563 2.05234375 14.01734375 2.0265625 13 2 C13 6.29 13 10.58 13 15 C18.94 14.505 18.94 14.505 25 14 C25.33 13.01 25.66 12.02 26 11 C26.66 11 27.32 11 28 11 C28 14.63 28 18.26 28 22 C27.34 22 26.68 22 26 22 C25.78601563 21.35546875 25.57203125 20.7109375 25.3515625 20.046875 C24.1526477 17.72160885 24.1526477 17.72160885 21.3984375 17.390625 C19.90183594 17.32101563 19.90183594 17.32101563 18.375 17.25 C16.60125 17.1675 14.8275 17.085 13 17 C13 21.62 13 26.24 13 31 C15.44116625 30.96697069 17.87318511 30.89985838 20.3125 30.8125 C21.34793945 30.80379883 21.34793945 30.80379883 22.40429688 30.79492188 C24.7016326 30.74609542 24.7016326 30.74609542 28 30 C29.89795367 27.56111754 29.89795367 27.56111754 31 25 C31.66 25 32.32 25 33 25 C32.67 27.97 32.34 30.94 32 34 C21.11 34 10.22 34 -1 34 C-1 33.34 -1 32.68 -1 32 C0.65 31.34 2.3 30.68 4 30 C4 21.09 4 12.18 4 3 C3.01 3.495 3.01 3.495 2 4 C2 3.01 2 2.02 2 1 C1.34 0.67 0.68 0.34 0 0 Z " fill="#0197DA" transform="translate(240,160)"/>
<path d="M0 0 C10.23 0 20.46 0 31 0 C31 2.31 31 4.62 31 7 C30.34 7 29.68 7 29 7 C28.67 5.68 28.34 4.36 28 3 C23.05 2.67 18.1 2.34 13 2 C13 6.29 13 10.58 13 15 C18.94 14.505 18.94 14.505 25 14 C25.33 13.01 25.66 12.02 26 11 C26.99 11 27.98 11 29 11 C29 14.63 29 18.26 29 22 C28.01 22 27.02 22 26 22 C25.67 20.68 25.34 19.36 25 18 C21.04 17.67 17.08 17.34 13 17 C13.33 21.29 13.66 25.58 14 30 C16.26921536 30.13489391 18.5407067 30.23193995 20.8125 30.3125 C22.07707031 30.37050781 23.34164063 30.42851562 24.64453125 30.48828125 C26.30548828 30.24658203 26.30548828 30.24658203 28 30 C29.87046304 27.57836465 29.87046304 27.57836465 31 25 C31.66 25 32.32 25 33 25 C33 27.97 33 30.94 33 34 C21.78 34 10.56 34 -1 34 C-1 33.34 -1 32.68 -1 32 C-0.195625 31.87625 0.60875 31.7525 1.4375 31.625 C2.283125 31.41875 3.12875 31.2125 4 31 C5.35700647 28.28598706 5.1123861 26.15153684 5.09765625 23.1171875 C5.09443359 21.95058594 5.09121094 20.78398437 5.08789062 19.58203125 C5.07951172 18.35871094 5.07113281 17.13539063 5.0625 15.875 C5.05798828 14.64394531 5.05347656 13.41289062 5.04882812 12.14453125 C5.0370133 9.09630608 5.02054028 6.04817686 5 3 C2.525 2.01 2.525 2.01 0 1 C0 0.67 0 0.34 0 0 Z " fill="#353946" transform="translate(412,160)"/>
<path d="M0 0 C0 2.97 0 5.94 0 9 C-0.66 9 -1.32 9 -2 9 C-3.35278115 7.01310269 -4.68568305 5.01254782 -6 3 C-8.73247348 1.63376326 -10.98198902 1.871574 -14 2 C-15.22507375 3.04402277 -15.22507375 3.04402277 -15.48828125 5.27734375 C-15.25240796 8.33192258 -15.25240796 8.33192258 -12.04296875 10.31640625 C-10.76852572 11.08319835 -9.48270152 11.83131727 -8.1875 12.5625 C-0.06165725 17.28152001 -0.06165725 17.28152001 2 21 C2.5412081 25.96107425 2.14534237 29.06832204 -1 33 C-4.85812505 35.78749535 -9.20536616 35.22297718 -13.75 35.125 C-14.54277344 35.11597656 -15.33554687 35.10695312 -16.15234375 35.09765625 C-18.10169281 35.07417012 -20.05088575 35.03830137 -22 35 C-22.33 31.7 -22.66 28.4 -23 25 C-20 26 -20 26 -18.4375 29.0625 C-16.36097528 32.22221255 -16.36097528 32.22221255 -13.51953125 32.39453125 C-10.9892832 32.37668747 -8.51637511 32.2593211 -6 32 C-5.56594469 28.26712432 -5.58412432 26.55450091 -7.875 23.5 C-11.12097326 20.59078477 -14.97758602 18.592341 -18.79296875 16.52734375 C-21.22454323 14.84460814 -22.00163831 13.74817841 -23 11 C-23.4375 8.0625 -23.4375 8.0625 -23 5 C-16.42988997 -2.78039345 -9.33664758 -1.58921661 0 0 Z " fill="#383C4A" transform="translate(399,159)"/>
<path d="M0 0 C0.33 0 0.66 0 1 0 C1.16604736 1.43835205 1.16604736 1.43835205 1.33544922 2.90576172 C1.74794698 6.45890723 2.17180051 10.01062096 2.59912109 13.56201172 C2.78256942 15.10005545 2.9629247 16.63847135 3.14013672 18.17724609 C3.39521422 20.38744277 3.66134052 22.59606769 3.9296875 24.8046875 C4.00686005 25.49432587 4.08403259 26.18396423 4.1635437 26.89450073 C4.60648684 30.8780464 4.60648684 30.8780464 7 34 C8.85046678 34.44259312 8.85046678 34.44259312 10.99072266 34.59423828 C11.81142242 34.67417023 12.63212219 34.75410217 13.47769165 34.8364563 C14.80744522 34.95221512 14.80744522 34.95221512 16.1640625 35.0703125 C17.52487442 35.19924393 17.52487442 35.19924393 18.91317749 35.33078003 C21.81640782 35.60390362 24.72060502 35.86458282 27.625 36.125 C29.59122198 36.30777648 31.55736911 36.49135997 33.5234375 36.67578125 C38.34813916 37.1265632 43.17374425 37.56618635 48 38 C48 38.33 48 38.66 48 39 C33.15 40.32 18.3 41.64 3 43 C2.67 41.68 2.34 40.36 2 39 C0.515 41.475 0.515 41.475 -1 44 C-3.86724686 43.42655063 -4.8614515 43.1385485 -7 41 C-7.3125 38.0625 -7.3125 38.0625 -7 35 C-6.51740723 34.57654297 -6.03481445 34.15308594 -5.53759766 33.71679688 C-3.24630685 31.15846773 -3.38289053 28.85115128 -3.0859375 25.46875 C-2.96476562 24.18355469 -2.84359375 22.89835937 -2.71875 21.57421875 C-2.603536 20.21619919 -2.48895951 18.85812541 -2.375 17.5 C-2.13813897 14.84322987 -1.89352802 12.18728527 -1.6484375 9.53125 C-1.54708496 8.35111328 -1.44573242 7.17097656 -1.34130859 5.95507812 C-1 3 -1 3 0 0 Z " fill="#066996" transform="translate(124,115)"/>
<path d="M0 0 C0 0.66 0 1.32 0 2 C-0.66 2 -1.32 2 -2 2 C-2.24492187 2.556875 -2.48984375 3.11375 -2.7421875 3.6875 C-4.24364676 6.44794685 -6.08383718 8.61034597 -8.125 11 C-11.36314026 14.88473377 -14.26649395 18.80854983 -17 23.0625 C-24.34309443 34.27344219 -33.06181465 43.60101698 -46 48 C-46.99 47.67 -47.98 47.34 -49 47 C-48.30777344 46.55914062 -48.30777344 46.55914062 -47.6015625 46.109375 C-37.23023485 38.97652515 -30.4162484 28.28271651 -23.33666992 18.09985352 C-10.17681186 -0.71001013 -10.17681186 -0.71001013 0 0 Z " fill="#383C4A" transform="translate(200,212)"/>
<path d="M0 0 C5.94 0 11.88 0 18 0 C18 0.66 18 1.32 18 2 C16.02 2.99 16.02 2.99 14 4 C13.67 13.24 13.34 22.48 13 32 C14.65 32.33 16.3 32.66 18 33 C18 33.66 18 34.32 18 35 C12.06 35 6.12 35 0 35 C0 34.34 0 33.68 0 33 C2.475 32.505 2.475 32.505 5 32 C4.67 22.43 4.34 12.86 4 3 C2.68 2.67 1.36 2.34 0 2 C0 1.34 0 0.68 0 0 Z " fill="#0396D8" transform="translate(153,159)"/>
<path d="M0 0 C5.94 0 11.88 0 18 0 C18 0.66 18 1.32 18 2 C16.35 2.33 14.7 2.66 13 3 C13.33 12.57 13.66 22.14 14 32 C15.32 32.33 16.64 32.66 18 33 C18 33.66 18 34.32 18 35 C12.06 35 6.12 35 0 35 C0 34.34 0 33.68 0 33 C1.32 32.34 2.64 31.68 4 31 C4.33 21.76 4.66 12.52 5 3 C3.35 2.67 1.7 2.34 0 2 C0 1.34 0 0.68 0 0 Z " fill="#333845" transform="translate(346,159)"/>
<path d="M0 0 C4.95 0 9.9 0 15 0 C14.67 1.65 14.34 3.3 14 5 C14.66097728 7.33347434 14.66097728 7.33347434 15.87109375 9.57421875 C16.28037109 10.40630859 16.68964844 11.23839844 17.11132812 12.09570312 C17.7677832 13.37864258 17.7677832 13.37864258 18.4375 14.6875 C19.29347846 16.39818503 20.14649752 18.11035509 20.99609375 19.82421875 C21.37950928 20.57791748 21.7629248 21.33161621 22.15795898 22.1081543 C23 24 23 24 23 26 C23.66 26 24.32 26 25 26 C25.33 25.34 25.66 24.68 26 24 C26.66 24.66 27.32 25.32 28 26 C26.02 30.455 26.02 30.455 24 35 C22.35 35 20.7 35 19 35 C18.56655273 34.0713916 18.13310547 33.1427832 17.68652344 32.18603516 C16.07389569 28.73977654 14.44497372 25.30143372 12.81103516 21.86523438 C12.10637255 20.37743315 11.40613661 18.88752689 10.71044922 17.39550781 C9.70918923 15.25015474 8.69220916 13.11289695 7.671875 10.9765625 C7.21068268 9.97491562 7.21068268 9.97491562 6.74017334 8.95303345 C5.38561306 6.15147177 4.42246311 4.27211213 1.77050781 2.56396484 C1.18624023 2.37785645 0.60197266 2.19174805 0 2 C0 1.34 0 0.68 0 0 Z " fill="#3A3E4C" transform="translate(282,159)"/>
<path d="M0 0 C3.63 0 7.26 0 11 0 C11 8.25 11 16.5 11 25 C7.37 25 3.74 25 0 25 C0 16.75 0 8.5 0 0 Z " fill="#0197D9" transform="translate(120,58)"/>
<path d="M0 0 C7.92 0 15.84 0 24 0 C24 3.3 24 6.6 24 10 C16.08 10 8.16 10 0 10 C0 6.7 0 3.4 0 0 Z " fill="#0D97D5" transform="translate(196,148)"/>
<path d="M0 0 C7.92 0 15.84 0 24 0 C24 3.3 24 6.6 24 10 C16.08 10 8.16 10 0 10 C0 6.7 0 3.4 0 0 Z " fill="#0F97D4" transform="translate(31,148)"/>
<path d="M0 0 C0.66 0.33 1.32 0.66 2 1 C2 3.31 2 5.62 2 8 C0.68 8.33 -0.64 8.66 -2 9 C-1.62875 10.216875 -1.2575 11.43375 -0.875 12.6875 C0.08254219 16.43122397 -0.05477623 18.54182441 -2 22 C-2.33 22 -2.66 22 -3 22 C-3 18.37 -3 14.74 -3 11 C-3.66 11 -4.32 11 -5 11 C-5.33 12.32 -5.66 13.64 -6 15 C-9.96 15 -13.92 15 -18 15 C-18 10.71 -18 6.42 -18 2 C-15.70858714 1.94615479 -13.41681812 1.90727913 -11.125 1.875 C-9.21074219 1.84019531 -9.21074219 1.84019531 -7.2578125 1.8046875 C-4 2 -4 2 -2 4 C-2 4.99 -2 5.98 -2 7 C-1.34 7 -0.68 7 0 7 C0 4.69 0 2.38 0 0 Z " fill="#EDFCFD" transform="translate(271,160)"/>
<path d="M0 0 C8.25 0 16.5 0 25 0 C25 0.66 25 1.32 25 2 C24.13375 2.804375 24.13375 2.804375 23.25 3.625 C20.31396614 6.72414685 18.75904359 10.14507468 17 14 C16.67 13.01 16.34 12.02 16 11 C15.773125 11.804375 15.54625 12.60875 15.3125 13.4375 C14.6628125 14.7059375 14.6628125 14.7059375 14 16 C11.41796875 16.66015625 11.41796875 16.66015625 9 17 C8.51789063 16.00097656 8.03578125 15.00195312 7.5390625 13.97265625 C6.90135911 12.66911549 6.26332089 11.36573849 5.625 10.0625 C5.30789063 9.40314453 4.99078125 8.74378906 4.6640625 8.06445312 C3.04522631 4.38695193 3.04522631 4.38695193 0 2 C0 1.34 0 0.68 0 0 Z " fill="#3B3F4D" transform="translate(299,159)"/>
<path d="M0 0 C3.96 0 7.92 0 12 0 C14.6875 8.0625 14.6875 8.0625 15 10 C14.34 10.66 13.68 11.32 13 12 C11.68 12 10.36 12 9 12 C8.67 11.34 8.34 10.68 8 10 C6.82299952 14.62459244 6.88591588 19.07866462 6.9375 23.8125 C6.94201172 24.60076172 6.94652344 25.38902344 6.95117188 26.20117188 C6.96288688 28.13414761 6.98082002 30.06708393 7 32 C7.99 32.33 8.98 32.66 10 33 C10 33.66 10 34.32 10 35 C6.04 35 2.08 35 -2 35 C-2 34.34 -2 33.68 -2 33 C-1.03320312 32.69835937 -1.03320312 32.69835937 -0.046875 32.390625 C2.30166957 31.13752455 2.30166957 31.13752455 2.609375 28.234375 C2.65578125 27.08453125 2.7021875 25.9346875 2.75 24.75 C2.80542969 23.50476563 2.86085937 22.25953125 2.91796875 20.9765625 C3.0416198 14.98243074 3.08200403 8.99540607 3 3 C2.01 2.67 1.02 2.34 0 2 C0 1.34 0 0.68 0 0 Z " fill="#1395CF" transform="translate(183,159)"/>
<path d="M0 0 C10.23 0 20.46 0 31 0 C31 2.31 31 4.62 31 7 C30.34 7 29.68 7 29 7 C28.34 5.68 27.68 4.36 27 3 C20.07 2.67 13.14 2.34 6 2 C6.01160156 4.08183594 6.02320313 6.16367188 6.03515625 8.30859375 C6.04210735 10.31746298 6.04902389 12.32633251 6.05493164 14.33520508 C6.0599708 15.73495228 6.06680216 17.1346942 6.07543945 18.53442383 C6.0875232 20.54245777 6.09269807 22.55052957 6.09765625 24.55859375 C6.10289307 25.76829834 6.10812988 26.97800293 6.11352539 28.22436523 C6 31 6 31 5 32 C7.64 32 10.28 32 13 32 C13 31.67 13 31.34 13 31 C14.04800781 30.98582031 15.09601563 30.97164062 16.17578125 30.95703125 C17.55473142 30.91012818 18.93363633 30.86188079 20.3125 30.8125 C21.34793945 30.80379883 21.34793945 30.80379883 22.40429688 30.79492188 C24.7016326 30.74609542 24.7016326 30.74609542 28 30 C29.89795367 27.56111754 29.89795367 27.56111754 31 25 C31.66 25 32.32 25 33 25 C32.67 27.97 32.34 30.94 32 34 C21.11 34 10.22 34 -1 34 C-1 33.34 -1 32.68 -1 32 C0.65 31.34 2.3 30.68 4 30 C4 21.09 4 12.18 4 3 C3.01 3.495 3.01 3.495 2 4 C2 3.01 2 2.02 2 1 C1.34 0.67 0.68 0.34 0 0 Z " fill="#2C95C6" transform="translate(240,160)"/>
<path d="M0 0 C0.33 0.66 0.66 1.32 1 2 C1.99 2 2.98 2 4 2 C3.48334032 7.85983633 2.24718923 12.60893883 -0.0625 18 C-0.48499023 19.01900391 -0.48499023 19.01900391 -0.91601562 20.05859375 C-1.60191311 21.70939787 -2.29969829 23.35525469 -3 25 C-3.66 25 -4.32 25 -5 25 C-7.29451329 21.44831326 -9.0530022 18.13929684 -10 14 C-8.7894457 9.76305995 -6.8336142 6.3680239 -4 3 C-3.01 2.67 -2.02 2.34 -1 2 C-0.67 1.34 -0.34 0.68 0 0 Z " fill="#F5F6F7" transform="translate(325,159)"/>
<path d="M0 0 C0.99 0.33 1.98 0.66 3 1 C2.56429687 1.60585937 2.12859375 2.21171875 1.6796875 2.8359375 C-1.37410409 7.13239753 -4.28083833 11.40920828 -6.875 16 C-11.31180624 23.50935388 -16.70616176 30.71144855 -25 34 C-25.99 33.67 -26.98 33.34 -28 33 C-26.94425781 32.26330078 -26.94425781 32.26330078 -25.8671875 31.51171875 C-22.24604207 28.33951642 -19.81398694 24.77789388 -17.125 20.8125 C-16.0665433 19.28415857 -15.00665755 17.7568058 -13.9453125 16.23046875 C-13.4390332 15.50005371 -12.93275391 14.76963867 -12.41113281 14.01708984 C-4.5191589 2.73620949 -4.5191589 2.73620949 0 0 Z " fill="#3D414E" transform="translate(199,220)"/>
<path d="M0 0 C0.33 0 0.66 0 1 0 C2.12513633 8.01659634 2.09579384 15.92138585 2 24 C0.35 24.33 -1.3 24.66 -3 25 C-3 25.66 -3 26.32 -3 27 C0.96 27 4.92 27 9 27 C8.67 27.66 8.34 28.32 8 29 C6.10388566 28.85786703 4.20811606 28.71113093 2.3125 28.5625 C1.25675781 28.48128906 0.20101562 28.40007812 -0.88671875 28.31640625 C-4 28 -4 28 -6.71875 27.4375 C-9.40945151 26.92147505 -11.36756856 27.32308906 -14 28 C-13.67 27.34 -13.34 26.68 -13 26 C-12.34 26.33 -11.68 26.66 -11 27 C-10.67 25.68 -10.34 24.36 -10 23 C-8.02 23.33 -6.04 23.66 -4 24 C-3.67 22.68 -3.34 21.36 -3 20 C-4.32 19.34 -5.64 18.68 -7 18 C-6.35534798 13.66695924 -4.81074878 10.13327935 -2.9375 6.1875 C-2.11572266 4.44533203 -2.11572266 4.44533203 -1.27734375 2.66796875 C-0.85582031 1.78753906 -0.43429688 0.90710938 0 0 Z " fill="#E5FAFD" transform="translate(216,167)"/>
<path d="M0 0 C0.33 0 0.66 0 1 0 C1.50205918 14.85723264 0.35318917 28.97974264 -5 43 C-5.33 43 -5.66 43 -6 43 C-7.20514375 33.66013591 -7.09213655 24.39792784 -7 15 C-6.01 14.67 -5.02 14.34 -4 14 C-3.67 13.34 -3.34 12.68 -3 12 C-3 12.66 -3 13.32 -3 14 C-2.34 13.67 -1.68 13.34 -1 13 C-0.53045739 9.95418731 -0.53045739 9.95418731 -0.375 6.4375 C-0.30023438 5.23996094 -0.22546875 4.04242188 -0.1484375 2.80859375 C-0.09945312 1.88175781 -0.05046875 0.95492187 0 0 Z " fill="#E8EDEF" transform="translate(232,147)"/>
<path d="M0 0 C-3.80475422 4.56030824 -7.74969621 8.85089392 -12 13 C-15.15624686 11.61263874 -17.19863433 9.99607292 -19.5625 7.5 C-21.67524223 5.27903267 -23.41613626 3.72257583 -26 2 C-23.16724047 1.66103732 -20.33395339 1.32870306 -17.5 1 C-16.31277344 0.85691406 -16.31277344 0.85691406 -15.1015625 0.7109375 C-10.02970596 0.12892118 -5.10506141 -0.09367085 0 0 Z " fill="#3B3F4D" transform="translate(112,215)"/>
<path d="M0 0 C0.66 0 1.32 0 2 0 C2 0.66 2 1.32 2 2 C2.99 2.33 3.98 2.66 5 3 C6.40379998 5.20007307 7.59101631 7.30226315 8.75 9.625 C9.07871094 10.22957031 9.40742188 10.83414063 9.74609375 11.45703125 C12.05717522 16.0304372 12.19435035 19.06416438 11 24 C10.67 24.66 10.34 25.32 10 26 C9.34 26 8.68 26 8 26 C6.26249264 22.61833722 4.56538477 19.21793032 2.875 15.8125 C2.38128906 14.85279297 1.88757813 13.89308594 1.37890625 12.90429688 C0.69248047 11.50727539 0.69248047 11.50727539 -0.0078125 10.08203125 C-0.43723145 9.22843018 -0.86665039 8.3748291 -1.30908203 7.49536133 C-2.18790872 4.32133744 -1.47947149 2.87125394 0 0 Z " fill="#F1F3F4" transform="translate(297,159)"/>
<path d="M0 0 C0.66 0.33 1.32 0.66 2 1 C2.0578304 5.45827926 2.09353855 9.9164628 2.125 14.375 C2.14175781 15.64601562 2.15851563 16.91703125 2.17578125 18.2265625 C2.18222656 19.43828125 2.18867188 20.65 2.1953125 21.8984375 C2.20578613 23.01911621 2.21625977 24.13979492 2.22705078 25.29443359 C2 28 2 28 0 30 C-1.32 30 -2.64 30 -4 30 C-4 30.66 -4 31.32 -4 32 C-4.99 32 -5.98 32 -7 32 C-6.73445312 30.92363281 -6.46890625 29.84726563 -6.1953125 28.73828125 C-4.23270394 20.66235581 -2.49850416 12.68509177 -1.39453125 4.44140625 C-1 2 -1 2 0 0 Z " fill="#E1F9FA" transform="translate(243,162)"/>
<path d="M0 0 C5.94 0 11.88 0 18 0 C18 0.66 18 1.32 18 2 C16.02 2.99 16.02 2.99 14 4 C13.67 13.24 13.34 22.48 13 32 C14.65 32.33 16.3 32.66 18 33 C18 33.66 18 34.32 18 35 C12.06 35 6.12 35 0 35 C0 34.34 0 33.68 0 33 C2.475 32.505 2.475 32.505 5 32 C5 32.33 5 32.66 5 33 C7.31 33 9.62 33 12 33 C12 22.77 12 12.54 12 2 C10.68 2 9.36 2 8 2 C8.020625 2.804375 8.04125 3.60875 8.0625 4.4375 C8 7 8 7 7 8 C6.84259395 9.70563778 6.74906608 11.41727244 6.68359375 13.12890625 C6.64169922 14.16337891 6.59980469 15.19785156 6.55664062 16.26367188 C6.51732422 17.35228516 6.47800781 18.44089844 6.4375 19.5625 C6.37272461 21.2012207 6.37272461 21.2012207 6.30664062 22.87304688 C6.20017932 25.58189564 6.09816484 28.29083992 6 31 C5.67 31 5.34 31 5 31 C4.67 21.76 4.34 12.52 4 3 C2.68 2.67 1.36 2.34 0 2 C0 1.34 0 0.68 0 0 Z " fill="#2B97C6" transform="translate(153,159)"/>
<path d="M0 0 C0.33 0 0.66 0 1 0 C1 1.98 1 3.96 1 6 C1.66 6.33 2.32 6.66 3 7 C0.69 7.33 -1.62 7.66 -4 8 C-3.75636719 9.12148437 -3.75636719 9.12148437 -3.5078125 10.265625 C-2.80472641 15.43601196 -2.8555786 20.53859097 -2.875 25.75 C-2.86919922 27.32974609 -2.86919922 27.32974609 -2.86328125 28.94140625 C-2.86457031 29.94558594 -2.86585937 30.94976562 -2.8671875 31.984375 C-2.86831543 32.89928711 -2.86944336 33.81419922 -2.87060547 34.75683594 C-3 37 -3 37 -4 39 C-4.66 38.67 -5.32 38.34 -6 38 C-5.67 28.76 -5.34 19.52 -5 10 C-8.3 10.33 -11.6 10.66 -15 11 C-17.23886732 13.88679844 -17.23886732 13.88679844 -18 17 C-18.66 17 -19.32 17 -20 17 C-20.125 9.375 -20.125 9.375 -19 6 C-18.01 6.33 -17.02 6.66 -16 7 C-14.17037564 7.14328384 -12.33498763 7.22040343 -10.5 7.25 C-9.06140625 7.28867188 -9.06140625 7.28867188 -7.59375 7.328125 C-4.97276935 7.22090618 -4.97276935 7.22090618 -3.23046875 5.62109375 C-1.87632169 3.83705873 -0.91498745 2.04112585 0 0 Z " fill="#1793C8" transform="translate(126,152)"/>
<path d="M0 0 C0.33 0 0.66 0 1 0 C1.50590367 4.04095043 2.00367562 8.08286274 2.5 12.125 C2.64308594 13.26710937 2.78617187 14.40921875 2.93359375 15.5859375 C3.06894531 16.69453125 3.20429687 17.803125 3.34375 18.9453125 C3.46943359 19.96125488 3.59511719 20.97719727 3.72460938 22.02392578 C4.00730104 25.0789004 4.25472983 27.93834334 4 31 C3.01 31.66 2.02 32.32 1 33 C-0.32 32.34 -1.64 31.68 -3 31 C-3.2117828 24.43473305 -2.78552118 18.08011255 -2.0625 11.5625 C-1.97564941 10.76924316 -1.88879883 9.97598633 -1.79931641 9.15869141 C-1.42961794 5.96807745 -1.01858007 3.05574021 0 0 Z " fill="#379CCA" transform="translate(124,115)"/>
<path d="M0 0 C3.63 0 7.26 0 11 0 C11 8.25 11 16.5 11 25 C7.37 25 3.74 25 0 25 C0 16.75 0 8.5 0 0 Z M3.26831055 2.22192383 C1.66768958 4.46587427 1.65191292 5.71167525 1.70703125 8.44921875 C1.71669922 9.29677734 1.72636719 10.14433594 1.73632812 11.01757812 C1.76146484 11.89865234 1.78660156 12.77972656 1.8125 13.6875 C1.82603516 14.58017578 1.83957031 15.47285156 1.85351562 16.39257812 C1.88885921 18.59566166 1.93819507 20.79752582 2 23 C4.31 23 6.62 23 9 23 C9 15.74 9 8.48 9 1 C5.19147828 0.61563801 5.19147828 0.61563801 3.26831055 2.22192383 Z " fill="#4EADD6" transform="translate(120,58)"/>
<path d="M0 0 C0.33 0 0.66 0 1 0 C1 3.3 1 6.6 1 10 C8.92 10 16.84 10 25 10 C25 6.7 25 3.4 25 0 C25.33 0 25.66 0 26 0 C26 3.3 26 6.6 26 10 C28.31 10 30.62 10 33 10 C33 10.33 33 10.66 33 11 C29.04 11 25.08 11 21 11 C20.34 12.98 19.68 14.96 19 17 C18.67 17 18.34 17 18 17 C18 15.35 18 13.7 18 12 C15.54137599 11.94616152 13.0839245 11.90640962 10.625 11.875 C9.92632812 11.85824219 9.22765625 11.84148437 8.5078125 11.82421875 C6.67102514 11.80655733 4.83398037 11.89696739 3 12 C2.34 12.66 1.68 13.32 1 14 C0.67 13.34 0.34 12.68 0 12 C-2.8159849 11.53101037 -2.8159849 11.53101037 -6.0625 11.375 C-7.71958984 11.26285156 -7.71958984 11.26285156 -9.41015625 11.1484375 C-10.26480469 11.09945312 -11.11945313 11.05046875 -12 11 C-12 11.66 -12 12.32 -12 13 C-10.68 13.33 -9.36 13.66 -8 14 C-8 18.62 -8 23.24 -8 28 C-8.33 28 -8.66 28 -9 28 C-9 23.71 -9 19.42 -9 15 C-10.65 14.67 -12.3 14.34 -14 14 C-13.625 12.0625 -13.625 12.0625 -13 10 C-10.47524538 8.73762269 -8.68799534 8.90143596 -5.875 8.9375 C-4.96492187 8.94652344 -4.05484375 8.95554688 -3.1171875 8.96484375 C-2.41851562 8.97644531 -1.71984375 8.98804688 -1 9 C-1.20625 8.071875 -1.4125 7.14375 -1.625 6.1875 C-2 3 -2 3 0 0 Z " fill="#D5F9FE" transform="translate(195,148)"/>
<path d="M0 0 C1.98 0 3.96 0 6 0 C6.33 8.91 6.66 17.82 7 27 C6.01 27 5.02 27 4 27 C0.96671409 23.96671409 1.57054808 20.39155937 1.4375 16.3125 C1.22645914 10.80298638 0.88222319 5.44645224 0 0 Z " fill="#0297D9" transform="translate(217,160)"/>
<path d="M0 0 C0.33 0 0.66 0 1 0 C1.33 9.24 1.66 18.48 2 28 C3.32 28.33 4.64 28.66 6 29 C6 29.66 6 30.32 6 31 C0.06 31 -5.88 31 -12 31 C-12 30.34 -12 29.68 -12 29 C-10.68 28.34 -9.36 27.68 -8 27 C-7.67 18.42 -7.34 9.84 -7 1 C-6.67 1 -6.34 1 -6 1 C-6 9.25 -6 17.5 -6 26 C-4.02 25.34 -2.04 24.68 0 24 C0 16.08 0 8.16 0 0 Z " fill="#474A55" transform="translate(358,163)"/>
<path d="M0 0 C4.00232299 2.0011615 6.18827117 3.56344254 9 7 C9.3125 10.3125 9.3125 10.3125 9 13 C8.01 13.33 7.02 13.66 6 14 C6 14.66 6 15.32 6 16 C5.34 16 4.68 16 4 16 C4 16.66 4 17.32 4 18 C3.34 18 2.68 18 2 18 C2 18.66 2 19.32 2 20 C1.34 20 0.68 20 0 20 C0 13.4 0 6.8 0 0 Z " fill="#2E3241" transform="translate(9,140)"/>
<path d="M0 0 C2.4377963 -0.05397335 4.87439685 -0.09365616 7.3125 -0.125 C8.00279297 -0.14175781 8.69308594 -0.15851563 9.40429688 -0.17578125 C13.17135396 -0.21217794 14.78431704 -0.14378864 18 2 C17.50769231 8.4 17.50769231 8.4 14.9375 11.4375 C14.298125 11.953125 13.65875 12.46875 13 13 C12.52949219 12.45730469 12.05898437 11.91460937 11.57421875 11.35546875 C10.95160156 10.64003906 10.32898438 9.92460937 9.6875 9.1875 C9.07261719 8.47980469 8.45773438 7.77210938 7.82421875 7.04296875 C5.32269116 4.24147211 3.14298929 2.0953262 0 0 Z " fill="#444854" transform="translate(133,211)"/>
<path d="M0 0 C3.96 0 7.92 0 12 0 C12 0.66 12 1.32 12 2 C11.08734375 2.30744141 11.08734375 2.30744141 10.15625 2.62109375 C7.09589922 4.5781659 6.67631766 6.66469055 5.5 10.0625 C3.54967425 15.49684419 1.42303421 20.76137297 -1 26 C-2.65 26 -4.3 26 -6 26 C-5.34 25.67 -4.68 25.34 -4 25 C-3.22381023 23.09706906 -3.22381023 23.09706906 -2.625 20.75 C-1.40698448 16.44009892 -0.13725918 12.15355084 1.1875 7.875 C1.53167969 6.75867188 1.87585938 5.64234375 2.23046875 4.4921875 C2.48441406 3.66976562 2.73835938 2.84734375 3 2 C2.01 2 1.02 2 0 2 C0 1.34 0 0.68 0 0 Z " fill="#4B4D57" transform="translate(326,159)"/>
<path d="M0 0 C0 0.66 0 1.32 0 2 C-0.66 2 -1.32 2 -2 2 C-2.24492187 2.55171875 -2.48984375 3.1034375 -2.7421875 3.671875 C-4.25738114 6.47639491 -6.11084126 8.78103123 -8.125 11.25 C-8.84945312 12.14203125 -9.57390625 13.0340625 -10.3203125 13.953125 C-10.87460938 14.62859375 -11.42890625 15.3040625 -12 16 C-12.66 14.68 -13.32 13.36 -14 12 C-16.76223278 12 -17.89281454 13.31425163 -20 15 C-16.18417789 6.59767249 -9.680966 -0.67541623 0 0 Z " fill="#3E414E" transform="translate(200,212)"/>
<path d="M0 0 C0.66 0 1.32 0 2 0 C2 4.29 2 8.58 2 13 C7.94 12.505 7.94 12.505 14 12 C14.33 11.01 14.66 10.02 15 9 C15.66 9 16.32 9 17 9 C17 12.63 17 16.26 17 20 C16.34 20 15.68 20 15 20 C14.78601563 19.35546875 14.57203125 18.7109375 14.3515625 18.046875 C13.1526477 15.72160885 13.1526477 15.72160885 10.3984375 15.390625 C8.90183594 15.32101563 8.90183594 15.32101563 7.375 15.25 C5.60125 15.1675 3.8275 15.085 2 15 C2 19.62 2 24.24 2 29 C1.34 28.67 0.68 28.34 0 28 C0 18.76 0 9.52 0 0 Z " fill="#2B9ACD" transform="translate(251,162)"/>
<path d="M0 0 C7.63062687 -0.13444393 15.09615815 0.24342182 22.6875 1 C23.68716797 1.09539062 24.68683594 1.19078125 25.71679688 1.2890625 C28.14501674 1.52142804 30.57267899 1.75845635 33 2 C33 2.33 33 2.66 33 3 C29.56330526 3.34198683 26.12554924 3.67193341 22.6875 4 C21.73037109 4.09539062 20.77324219 4.19078125 19.78710938 4.2890625 C13.17080665 4.91282168 6.64414205 5.11706307 0 5 C0 3.35 0 1.7 0 0 Z " fill="#0E6993" transform="translate(139,151)"/>
<path d="M0 0 C0.33 1.32 0.66 2.64 1 4 C2.32 4.33 3.64 4.66 5 5 C4.43261138 8.39792055 3.4756777 9.83096984 0.83984375 12.015625 C0.21142578 12.54414063 -0.41699219 13.07265625 -1.06445312 13.6171875 C-1.72380859 14.15601563 -2.38316406 14.69484375 -3.0625 15.25 C-3.72572266 15.80429688 -4.38894531 16.35859375 -5.07226562 16.9296875 C-6.7079708 18.29473642 -8.35309951 19.64847909 -10 21 C-10.66 20.67 -11.32 20.34 -12 20 C-8.04 13.4 -4.08 6.8 0 0 Z " fill="#414551" transform="translate(205,229)"/>
<path d="M0 0 C0.99 0.33 1.98 0.66 3 1 C2.0925 1.721875 1.185 2.44375 0.25 3.1875 C-2.57743841 5.5370615 -4.75450888 8.08086154 -7 11 C-8.32 12.32 -9.64 13.64 -11 15 C-7.7 18.3 -4.4 21.6 -1 25 C-4 25 -4 25 -6.04296875 23.25 C-6.75066406 22.5075 -7.45835938 21.765 -8.1875 21 C-8.90292969 20.2575 -9.61835937 19.515 -10.35546875 18.75 C-10.89816406 18.1725 -11.44085938 17.595 -12 17 C-15.11785113 17.64644661 -15.11785113 17.64644661 -16 20 C-16.66 20 -17.32 20 -18 20 C-18 20.66 -18 21.32 -18 22 C-18.66 22 -19.32 22 -20 22 C-18.62594577 19.04049858 -16.98223068 16.58504604 -15 14 C-15.55429688 13.54109375 -16.10859375 13.0821875 -16.6796875 12.609375 C-17.40414062 11.99578125 -18.12859375 11.3821875 -18.875 10.75 C-19.59429687 10.14671875 -20.31359375 9.5434375 -21.0546875 8.921875 C-22.97052118 7.02912366 -23.96449045 5.46342273 -25 3 C-21.78475695 4.40844718 -19.67816132 6.10344786 -17.25 8.625 C-16.63640625 9.25664062 -16.0228125 9.88828125 -15.390625 10.5390625 C-14.70226562 11.26222656 -14.70226562 11.26222656 -14 12 C-10.09714233 10.41332422 -7.66479018 7.86649519 -4.75 4.875 C-3.85796875 3.96492187 -2.9659375 3.05484375 -2.046875 2.1171875 C-1.37140625 1.41851562 -0.6959375 0.71984375 0 0 Z " fill="#242A39" transform="translate(112,215)"/>
<path d="M0 0 C2.96052484 3.36423277 3.92289822 6.69159287 5 11 C4.34 11 3.68 11 3 11 C2.67 10.01 2.34 9.02 2 8 C1.67 13.28 1.34 18.56 1 24 C1.99 24 2.98 24 4 24 C4 25.32 4 26.64 4 28 C-0.62 28 -5.24 28 -10 28 C-10.33 26.68 -10.66 25.36 -11 24 C-9.68 24 -8.36 24 -7 24 C-7 23.01 -7 22.02 -7 21 C-6.34 21 -5.68 21 -5 21 C-5 19.02 -5 17.04 -5 15 C-4.67 15 -4.34 15 -4 15 C-3.8046875 21.0546875 -3.8046875 21.0546875 -4 23 C-4.66 23.66 -5.32 24.32 -6 25 C-6.99 25 -7.98 25 -9 25 C-9 25.66 -9 26.32 -9 27 C-5.04 27 -1.08 27 3 27 C3 26.34 3 25.68 3 25 C1.68 24.67 0.36 24.34 -1 24 C-1.02720824 21.31243045 -1.0469388 18.62514202 -1.0625 15.9375 C-1.07087891 15.18533203 -1.07925781 14.43316406 -1.08789062 13.65820312 C-1.10808341 8.99366882 -0.77595959 4.60076827 0 0 Z " fill="#D5F8FC" transform="translate(190,167)"/>
<path d="M0 0 C0.33 0.66 0.66 1.32 1 2 C3.01669827 3.13350534 3.01669827 3.13350534 5 4 C2.73711205 7.33478225 0.1396188 9.50440557 -3 12 C-5.25735442 14.73994348 -5.25735442 14.73994348 -4.875 17.44921875 C-5 20 -5 20 -6.75 22.01953125 C-7.4925 22.61121094 -8.235 23.20289063 -9 23.8125 C-9.7425 24.41707031 -10.485 25.02164063 -11.25 25.64453125 C-11.8275 26.09183594 -12.405 26.53914063 -13 27 C-13.33 26.34 -13.66 25.68 -14 25 C-13.15136719 23.12402344 -13.15136719 23.12402344 -11.796875 20.859375 C-11.31089844 20.03566406 -10.82492188 19.21195313 -10.32421875 18.36328125 C-9.80472656 17.50089844 -9.28523437 16.63851562 -8.75 15.75 C-7.7431872 14.0582455 -6.73794113 12.36555747 -5.734375 10.671875 C-5.0218457 9.47014648 -5.0218457 9.47014648 -4.29492188 8.24414062 C-2.73801668 5.5459746 -1.34105459 2.81070346 0 0 Z " fill="#3D414D" transform="translate(224,196)"/>
<path d="M0 0 C0.84026396 1.76755526 1.67198722 3.53917263 2.5 5.3125 C2.9640625 6.29863281 3.428125 7.28476563 3.90625 8.30078125 C5 11 5 11 5 14 C3.02 14.66 1.04 15.32 -1 16 C-1.86580287 14.06767179 -2.71729941 12.12892806 -3.5625 10.1875 C-4.03816406 9.10855469 -4.51382813 8.02960938 -5.00390625 6.91796875 C-6 4 -6 4 -5 1 C-2 0 -2 0 0 0 Z " fill="#0B91CC" transform="translate(93,64)"/>
<path d="M0 0 C0.33 1.98 0.66 3.96 1 6 C-0.76755526 6.84026396 -2.53917263 7.67198722 -4.3125 8.5 C-5.29863281 8.9640625 -6.28476562 9.428125 -7.30078125 9.90625 C-10 11 -10 11 -13 11 C-13.33 9.02 -13.66 7.04 -14 5 C-12.04350603 4.16235732 -10.08474444 3.33000941 -8.125 2.5 C-6.48917969 1.80390625 -6.48917969 1.80390625 -4.8203125 1.09375 C-2 0 -2 0 0 0 Z " fill="#1496D1" transform="translate(51,180)"/>
<path d="M0 0 C4.9723422 1.49170266 9.41845739 3.60457417 14 6 C13.34 7.65 12.68 9.3 12 11 C6.65155992 10.46515599 2.64203897 8.53309233 -2 6 C-1.34 4.02 -0.68 2.04 0 0 Z " fill="#198FC1" transform="translate(39,113)"/>
<path d="M0 0 C0 2.97 0 5.94 0 9 C-0.66 9 -1.32 9 -2 9 C-3.35278115 7.01310269 -4.68568305 5.01254782 -6 3 C-8.70879335 1.64560332 -11.00933268 1.93498549 -14 2 C-14.66 3.65 -15.32 5.3 -16 7 C-16.99 5.68 -17.98 4.36 -19 3 C-19.99 4.485 -19.99 4.485 -21 6 C-20.34 6.33 -19.68 6.66 -19 7 C-19.33 7.66 -19.66 8.32 -20 9 C-20.66 9 -21.32 9 -22 9 C-22.33 9.66 -22.66 10.32 -23 11 C-23.3125 8.3125 -23.3125 8.3125 -23 5 C-16.42988997 -2.78039345 -9.33664758 -1.58921661 0 0 Z " fill="#484B55" transform="translate(399,159)"/>
<path d="M0 0 C1.32 0 2.64 0 4 0 C4.33 5.94 4.66 11.88 5 18 C5.66 18.33 6.32 18.66 7 19 C3.7 19 0.4 19 -3 19 C-3 18.34 -3 17.68 -3 17 C-2.34 17 -1.68 17 -1 17 C-0.67 11.39 -0.34 5.78 0 0 Z " fill="#0197D9" transform="translate(123,174)"/>
<path d="M0 0 C0.33 0 0.66 0 1 0 C1.66 9.57 2.32 19.14 3 29 C3.99 29.33 4.98 29.66 6 30 C6 30.66 6 31.32 6 32 C2.04 32 -1.92 32 -6 32 C-6 31.34 -6 30.68 -6 30 C-5.35708008 29.80035645 -4.71416016 29.60071289 -4.05175781 29.39501953 C-1.69646601 28.13430449 -1.69646601 28.13430449 -1.36230469 25.20263672 C-1.26804199 23.45877686 -1.26804199 23.45877686 -1.171875 21.6796875 C-1.09453125 20.42285156 -1.0171875 19.16601562 -0.9375 17.87109375 C-0.87458579 16.539082 -0.8120912 15.20705037 -0.75 13.875 C-0.67363509 12.53505478 -0.59553119 11.19520745 -0.515625 9.85546875 C-0.32658375 6.57087709 -0.15549826 3.28632295 0 0 Z " fill="#2F99C7" transform="translate(187,162)"/>
<path d="M0 0 C0.33 1.65 0.66 3.3 1 5 C-3.64203897 7.53309233 -7.65155992 9.46515599 -13 10 C-13.33 8.35 -13.66 6.7 -14 5 C-12.421924 4.15675328 -10.8372958 3.32576082 -9.25 2.5 C-8.36828125 2.0359375 -7.4865625 1.571875 -6.578125 1.09375 C-4 0 -4 0 0 0 Z " fill="#0F7EB3" transform="translate(213,115)"/>
<path d="M0 0 C2.97 0.495 2.97 0.495 6 1 C5.28269264 4.23165844 4.18684926 7.18707922 2.9375 10.25 C2.57527344 11.14203125 2.21304688 12.0340625 1.83984375 12.953125 C1.56269531 13.62859375 1.28554687 14.3040625 1 15 C-1.4375 14.625 -1.4375 14.625 -4 14 C-4.33 13.34 -4.66 12.68 -5 12 C-4.26821134 9.92803369 -3.44100997 7.8891448 -2.5625 5.875 C-2.08941406 4.77929688 -1.61632812 3.68359375 -1.12890625 2.5546875 C-0.75636719 1.71164063 -0.38382813 0.86859375 0 0 Z " fill="#1E8FC2" transform="translate(159,65)"/>
<path d="M0 0 C3.45201639 1.47721422 5.64961936 3.43794001 8.25 6.125 C8.95640625 6.84945312 9.6628125 7.57390625 10.390625 8.3203125 C11.18726562 9.15175781 11.18726562 9.15175781 12 10 C11.01 11.32 10.02 12.64 9 14 C5.89557969 12.6095501 3.6343557 10.98428402 1.1875 8.625 C0.56230469 8.03976563 -0.06289063 7.45453125 -0.70703125 6.8515625 C-2 5 -2 5 -1.76171875 2.8359375 C-1 1 -1 1 0 0 Z " fill="#148ABC" transform="translate(59,84)"/>
<path d="M0 0 C0.99 0.33 1.98 0.66 3 1 C-0.3 4.3 -3.6 7.6 -7 11 C-5.02 13.31 -3.04 15.62 -1 18 C-1.33 18.66 -1.66 19.32 -2 20 C-3.98 18.02 -5.96 16.04 -8 14 C-11.74366186 15.43986995 -13.9693114 17.87350302 -16.6328125 20.7578125 C-18 22 -18 22 -20 22 C-20 21.34 -20 20.68 -20 20 C-19.34 20 -18.68 20 -18 20 C-17.7525 19.38125 -17.505 18.7625 -17.25 18.125 C-15.79371361 15.64931313 -14.62187494 15.04874998 -12 14 C-12.44469329 8.96014269 -14.71343362 6.62365012 -18 3 C-14.05860922 4.66751148 -11.2107188 7.22710649 -8 10 C-8 9.34 -8 8.68 -8 8 C-6.34997172 6.64613064 -4.6825613 5.31321858 -3 4 C-2.67 3.34 -2.34 2.68 -2 2 C-1.34 2 -0.68 2 0 2 C0 1.34 0 0.68 0 0 Z " fill="#252A39" transform="translate(135,245)"/>
<path d="M0 0 C0 0.66 0 1.32 0 2 C-7.92 2 -15.84 2 -24 2 C-24 5.3 -24 8.6 -24 12 C-16.08 12 -8.16 12 0 12 C0 12.33 0 12.66 0 13 C-8.25 13 -16.5 13 -25 13 C-25 8.71 -25 4.42 -25 0 C-22.14619655 -0.19629336 -19.29232606 -0.38226546 -16.4375 -0.5625 C-15.63763672 -0.61857422 -14.83777344 -0.67464844 -14.01367188 -0.73242188 C-9.15845373 -1.02968013 -4.78889489 -0.86778632 0 0 Z " fill="#CFF3FC" transform="translate(55,146)"/>
<path d="M0 0 C0.66 0.33 1.32 0.66 2 1 C1.10911256 5.34396244 -1.17731786 8.40935643 -3.75 11.9375 C-4.18054688 12.54529297 -4.61109375 13.15308594 -5.0546875 13.77929688 C-7.76592284 17.54174471 -10.63404562 20.80960799 -14 24 C-14.71875 22.2890625 -14.71875 22.2890625 -15 20 C-13.59375 17.7734375 -13.59375 17.7734375 -11.5 15.375 C-7.33710173 10.44988091 -3.62733475 5.32764792 0 0 Z " fill="#E8EBEE" transform="translate(188,227)"/>
<path d="M0 0 C0.33 0 0.66 0 1 0 C1.33 3.96 1.66 7.92 2 12 C3.32 12 4.64 12 6 12 C6 12.66 6 13.32 6 14 C0.06 14 -5.88 14 -12 14 C-12 13.34 -12 12.68 -12 12 C-11.195625 11.773125 -10.39125 11.54625 -9.5625 11.3125 C-8.716875 10.879375 -7.87125 10.44625 -7 10 C-6.10613836 7.45224694 -6.10613836 7.45224694 -6 5 C-5.38125 5.33 -4.7625 5.66 -4.125 6 C-2.08981656 7.14193235 -2.08981656 7.14193235 0 7 C0 4.69 0 2.38 0 0 Z " fill="#1896CF" transform="translate(225,180)"/>
<path d="M0 0 C0.66 1.65 1.32 3.3 2 5 C-0.97 7.97 -3.94 10.94 -7 14 C-8.32 13.34 -9.64 12.68 -11 12 C-11 9 -11 9 -9.1015625 6.73828125 C-8.28429687 5.93777344 -7.46703125 5.13726562 -6.625 4.3125 C-5.81289062 3.50425781 -5.00078125 2.69601563 -4.1640625 1.86328125 C-2 0 -2 0 0 0 Z " fill="#1488BB" transform="translate(192,84)"/>
<path d="M0 0 C0 0.66 0 1.32 0 2 C-0.66 2 -1.32 2 -2 2 C-2.2475 2.61875 -2.495 3.2375 -2.75 3.875 C-4.20628639 6.35068687 -5.37812506 6.95125002 -8 8 C-8 8.66 -8 9.32 -8 10 C-12.2742558 8.4169423 -14.26531794 5.49431596 -17 2 C-16.16855469 1.93941406 -15.33710937 1.87882813 -14.48046875 1.81640625 C-12.85044922 1.69072266 -12.85044922 1.69072266 -11.1875 1.5625 C-10.10855469 1.48128906 -9.02960938 1.40007812 -7.91796875 1.31640625 C-5.15209182 1.01649188 -2.75597229 0 0 0 Z " fill="#414552" transform="translate(135,245)"/>
<path d="M0 0 C0 0.33 0 0.66 0 1 C-1.98 1.33 -3.96 1.66 -6 2 C-4.02 2.66 -2.04 3.32 0 4 C0 4.33 0 4.66 0 5 C-5.94 5 -11.88 5 -18 5 C-18.33 5.66 -18.66 6.32 -19 7 C-18.67 5.35 -18.34 3.7 -18 2 C-18.99 1.67 -19.98 1.34 -21 1 C-13.97252688 0.33411422 -7.05985273 -0.11766421 0 0 Z " fill="#D9F7FB" transform="translate(171,154)"/>
<path d="M0 0 C3 1 3 1 4.5625 4.0625 C6.63902472 7.22221255 6.63902472 7.22221255 9.48046875 7.39453125 C12.0107168 7.37668747 14.48362489 7.2593211 17 7 C17.33 6.34 17.66 5.68 18 5 C18.5625 6.9375 18.5625 6.9375 19 9 C18 10 18 10 14.18359375 10.09765625 C12.60153318 10.09098089 11.01948841 10.07901875 9.4375 10.0625 C8.63119141 10.05798828 7.82488281 10.05347656 6.99414062 10.04882812 C4.99606244 10.03700518 2.99802217 10.01906914 1 10 C0.67 6.7 0.34 3.4 0 0 Z " fill="#454751" transform="translate(376,184)"/>
<path d="M0 0 C0 0.66 0 1.32 0 2 C-1.6796875 3.65625 -1.6796875 3.65625 -3.875 5.5 C-5.99035504 7.28933258 -8.04019124 9.04019124 -10 11 C-10.16687448 13.58354218 -10.16687448 13.58354218 -10 16 C-10.66 16 -11.32 16 -12 16 C-12 15.34 -12 14.68 -12 14 C-13.32 15.32 -14.64 16.64 -16 18 C-16.99 17.67 -17.98 17.34 -19 17 C-18.34 16.34 -17.68 15.68 -17 15 C-17.27617533 13.05925139 -17.27617533 13.05925139 -18 11 C-18.33333333 9.66666667 -18.66666667 8.33333333 -19 7 C-17.68 7.33 -16.36 7.66 -15 8 C-15 8.99 -15 9.98 -15 11 C-10.38677046 8.69338523 -7.2605279 5.34912616 -3.76953125 1.64453125 C-2 0 -2 0 0 0 Z " fill="#262B3A" transform="translate(59,217)"/>
<path d="M0 0 C0.33 0 0.66 0 1 0 C1.02505615 0.6705542 1.0501123 1.3411084 1.07592773 2.03198242 C1.19230801 5.0839959 1.31484348 8.13573258 1.4375 11.1875 C1.47681641 12.24259766 1.51613281 13.29769531 1.55664062 14.38476562 C1.61948242 15.91713867 1.61948242 15.91713867 1.68359375 17.48046875 C1.72025146 18.41785889 1.75690918 19.35524902 1.79467773 20.32104492 C1.99625599 22.95114982 2.42678321 25.42766414 3 28 C4.65 28.33 6.3 28.66 8 29 C7.67 29.99 7.34 30.98 7 32 C0.4 32 -6.2 32 -13 32 C-13 31.67 -13 31.34 -13 31 C-7.06 31 -1.12 31 5 31 C5 30.34 5 29.68 5 29 C3.35 28.67 1.7 28.34 0 28 C0 18.76 0 9.52 0 0 Z " fill="#D8FBFE" transform="translate(166,163)"/>
<path d="M0 0 C0.99 0.33 1.98 0.66 3 1 C3 5.62 3 10.24 3 15 C1.68 15 0.36 15 -1 15 C-1 15.66 -1 16.32 -1 17 C-1.99 17 -2.98 17 -4 17 C-2.68 11.39 -1.36 5.78 0 0 Z " fill="#E8EFF2" transform="translate(240,177)"/>
<path d="M0 0 C0.33 0 0.66 0 1 0 C1 9.57 1 19.14 1 29 C2.98 29.33 4.96 29.66 7 30 C7 30.66 7 31.32 7 32 C0.4 32 -6.2 32 -13 32 C-13 31.34 -13 30.68 -13 30 C-11.35 29.67 -9.7 29.34 -8 29 C-8 29.66 -8 30.32 -8 31 C-4.04 30.505 -4.04 30.505 0 30 C0 20.1 0 10.2 0 0 Z " fill="#419FC9" transform="translate(128,162)"/>
<path d="M0 0 C3.96 0 7.92 0 12 0 C12 2 12 2 10 4.125 C9.34 4.74375 8.68 5.3625 8 6 C8.99 7.485 8.99 7.485 10 9 C7.36 9 4.72 9 2 9 C2.66 7.68 3.32 6.36 4 5 C2.68 3.35 1.36 1.7 0 0 Z " fill="#272B39" transform="translate(120,38)"/>
<path d="M0 0 C8.91 0 17.82 0 27 0 C27 2.31 27 4.62 27 7 C26.34 7 25.68 7 25 7 C24.77779785 6.35708008 24.5555957 5.71416016 24.32666016 5.05175781 C23.17352813 2.76791314 23.17352813 2.76791314 20.66162109 2.36230469 C19.70852051 2.29946289 18.75541992 2.23662109 17.7734375 2.171875 C16.7421875 2.09453125 15.7109375 2.0171875 14.6484375 1.9375 C13.02808594 1.8446875 13.02808594 1.8446875 11.375 1.75 C10.28703125 1.67265625 9.1990625 1.5953125 8.078125 1.515625 C5.38610218 1.32671112 2.69411972 1.15561246 0 1 C0 0.67 0 0.34 0 0 Z " fill="#1A8FC1" transform="translate(244,160)"/>
<path d="M0 0 C-0.99 0.495 -0.99 0.495 -2 1 C-2 4.96 -2 8.92 -2 13 C-2.33 13 -2.66 13 -3 13 C-3 9.37 -3 5.74 -3 2 C-3.99 2.66 -4.98 3.32 -6 4 C-9.13671875 4.1953125 -9.13671875 4.1953125 -12.6875 4.125 C-13.86699219 4.10695312 -15.04648438 4.08890625 -16.26171875 4.0703125 C-17.16535156 4.04710937 -18.06898437 4.02390625 -19 4 C-17.39670475 2.10750275 -16.42078554 1.10682734 -13.984375 0.48828125 C-12.87835938 0.40126953 -12.87835938 0.40126953 -11.75 0.3125 C-10.96238281 0.24804688 -10.17476562 0.18359375 -9.36328125 0.1171875 C-6.23188472 -0.03808836 -3.13463027 -0.06669426 0 0 Z " fill="#C8F0F8" transform="translate(146,156)"/>
<path d="M0 0 C0.66 0 1.32 0 2 0 C2 3.63 2 7.26 2 11 C1.34 11 0.68 11 0 11 C-0.20367187 10.35546875 -0.40734375 9.7109375 -0.6171875 9.046875 C-1.8667935 6.68846128 -1.8667935 6.68846128 -4.8203125 6.390625 C-5.91085937 6.34421875 -7.00140625 6.2978125 -8.125 6.25 C-9.76855469 6.16492188 -9.76855469 6.16492188 -11.4453125 6.078125 C-12.28835937 6.05234375 -13.13140625 6.0265625 -14 6 C-14 5.34 -14 4.68 -14 4 C-7.565 3.505 -7.565 3.505 -1 3 C-0.67 2.01 -0.34 1.02 0 0 Z " fill="#298DBB" transform="translate(266,171)"/>
<path d="M0 0 C4.29 0.66 8.58 1.32 13 2 C13 2.66 13 3.32 13 4 C12.38511719 4.00257813 11.77023438 4.00515625 11.13671875 4.0078125 C8.62855042 4.12782055 6.42008233 4.31774275 4 5 C1.83752779 7.90251302 1.83752779 7.90251302 1 11 C0.34 11 -0.32 11 -1 11 C-1.125 3.375 -1.125 3.375 0 0 Z " fill="#1D92C7" transform="translate(107,158)"/>
<path d="M0 0 C-1.33801412 3.0649092 -2.70907981 4.85360933 -5.3125 6.9375 C-9.37256908 10.28705699 -13.06377404 13.59566107 -16 18 C-16.66 18 -17.32 18 -18 18 C-17.67 19.32 -17.34 20.64 -17 22 C-18.32 20.68 -19.64 19.36 -21 18 C-20.55011719 17.62230469 -20.10023437 17.24460938 -19.63671875 16.85546875 C-14.72743642 12.65453978 -10.15041094 8.21898307 -5.68237305 3.55737305 C-2.2145093 0 -2.2145093 0 0 0 Z " fill="#252A39" transform="translate(92,237)"/>
<path d="M0 0 C2.97 0 5.94 0 9 0 C8.01 0.33 7.02 0.66 6 1 C6 1.99 6 2.98 6 4 C5.5155542 4.45157471 5.0311084 4.90314941 4.53198242 5.3684082 C2.43599602 7.60067547 2.57573727 9.07949042 2.48828125 12.10546875 C2.43510742 13.57983398 2.43510742 13.57983398 2.38085938 15.08398438 C2.35830078 16.10814453 2.33574219 17.13230469 2.3125 18.1875 C2.26125977 19.74114258 2.26125977 19.74114258 2.20898438 21.32617188 C2.12647358 23.8840066 2.05733428 26.44149723 2 29 C1.67 29 1.34 29 1 29 C0.67 19.43 0.34 9.86 0 0 Z " fill="#0A94D3" transform="translate(245,161)"/>
<path d="M0 0 C0.66 0 1.32 0 2 0 C2 3.63 2 7.26 2 11 C1.34 11 0.68 11 0 11 C-0.66 9.02 -1.32 7.04 -2 5 C-2.63808594 4.95101562 -3.27617187 4.90203125 -3.93359375 4.8515625 C-4.75988281 4.77679688 -5.58617187 4.70203125 -6.4375 4.625 C-7.26121094 4.55539063 -8.08492187 4.48578125 -8.93359375 4.4140625 C-9.61550781 4.27742187 -10.29742187 4.14078125 -11 4 C-11.33 3.34 -11.66 2.68 -12 2 C-11.21753906 1.93941406 -10.43507812 1.87882813 -9.62890625 1.81640625 C-8.61699219 1.73261719 -7.60507813 1.64882812 -6.5625 1.5625 C-5.55316406 1.48128906 -4.54382813 1.40007812 -3.50390625 1.31640625 C-1.06359221 1.26788532 -1.06359221 1.26788532 0 0 Z " fill="#2691C3" transform="translate(141,158)"/>
<path d="M0 0 C0.66 0.33 1.32 0.66 2 1 C0.72867494 4.81397517 -0.986462 5.83673229 -4.125 8.3125 C-5.11371094 9.10140625 -6.10242188 9.8903125 -7.12109375 10.703125 C-8.54615234 11.84007812 -8.54615234 11.84007812 -10 13 C-12.35281869 14.97878085 -14.67672418 16.98649429 -17 19 C-16.44175115 15.38317647 -15.25399273 14.02083171 -12.4375 11.75 C-8.02890953 8.07484592 -4.00786583 4.10379878 0 0 Z " fill="#262B3A" transform="translate(227,207)"/>
<path d="M0 0 C3.3 0 6.6 0 10 0 C10 0.33 10 0.66 10 1 C7.03 1 4.06 1 1 1 C1.13867261 5.10444167 1.28716103 9.2084704 1.4375 13.3125 C1.47681641 14.47974609 1.51613281 15.64699219 1.55664062 16.84960938 C1.59853516 17.96787109 1.64042969 19.08613281 1.68359375 20.23828125 C1.72025146 21.26993408 1.75690918 22.30158691 1.79467773 23.36450195 C1.90161242 26.10748258 1.90161242 26.10748258 3 29 C3.99 29.33 4.98 29.66 6 30 C4.02 29.67 2.04 29.34 0 29 C0 19.43 0 9.86 0 0 Z " fill="#DBFDFE" transform="translate(129,162)"/>
<path d="M0 0 C3.63 0 7.26 0 11 0 C10.01 0.33 9.02 0.66 8 1 C8 1.99 8 2.98 8 4 C8.99 4.33 9.98 4.66 11 5 C7.37 5 3.74 5 0 5 C0 3.35 0 1.7 0 0 Z " fill="#1C7DA9" transform="translate(139,151)"/>
<path d="M0 0 C0.99 0 1.98 0 3 0 C3 3.63 3 7.26 3 11 C2.01 11 1.02 11 0 11 C-0.33 9.68 -0.66 8.36 -1 7 C-2.32 6.67 -3.64 6.34 -5 6 C-5 5.34 -5 4.68 -5 4 C-4.0409375 3.8453125 -4.0409375 3.8453125 -3.0625 3.6875 C-2.381875 3.460625 -1.70125 3.23375 -1 3 C-0.67 2.01 -0.34 1.02 0 0 Z " fill="#40424C" transform="translate(438,171)"/>
<path d="M0 0 C0.66 0.33 1.32 0.66 2 1 C1.67 1.66 1.34 2.32 1 3 C1.99 3.33 2.98 3.66 4 4 C2.06891037 5.03290841 0.129882 6.05098672 -1.8125 7.0625 C-2.89144531 7.63097656 -3.97039062 8.19945312 -5.08203125 8.78515625 C-8 10 -8 10 -11 9 C-10.45730469 8.60167969 -9.91460937 8.20335937 -9.35546875 7.79296875 C-8.64003906 7.26316406 -7.92460937 6.73335938 -7.1875 6.1875 C-6.47980469 5.66542969 -5.77210938 5.14335937 -5.04296875 4.60546875 C-3.21468607 3.16871123 -1.60103312 1.68184237 0 0 Z " fill="#464953" transform="translate(162,250)"/>
<path d="M0 0 C0.33 0.66 0.66 1.32 1 2 C1.99 2.33 2.98 2.66 4 3 C2.68 3 1.36 3 0 3 C0 3.66 0 4.32 0 5 C3.96 5 7.92 5 12 5 C11.67 5.66 11.34 6.32 11 7 C9.10388566 6.85786703 7.20811606 6.71113093 5.3125 6.5625 C4.25675781 6.48128906 3.20101562 6.40007812 2.11328125 6.31640625 C-1 6 -1 6 -3.71875 5.4375 C-6.40945151 4.92147505 -8.36756856 5.32308906 -11 6 C-10.67 5.34 -10.34 4.68 -10 4 C-9.34 4.33 -8.68 4.66 -8 5 C-7.67 3.68 -7.34 2.36 -7 1 C-4.03 1.495 -4.03 1.495 -1 2 C-0.67 1.34 -0.34 0.68 0 0 Z " fill="#D0F6FC" transform="translate(213,189)"/>
<path d="M0 0 C0.33 0 0.66 0 1 0 C1 3.3 1 6.6 1 10 C1.66 10 2.32 10 3 10 C3.33 11.65 3.66 13.3 4 15 C3.01 15.66 2.02 16.32 1 17 C-1 15 -1 15 -1.23046875 12.28515625 C-1.21628906 11.22167969 -1.20210938 10.15820312 -1.1875 9.0625 C-1.18105469 8.00160156 -1.17460938 6.94070312 -1.16796875 5.84765625 C-1 3 -1 3 0 0 Z " fill="#0696D6" transform="translate(124,131)"/>
<path d="M0 0 C0.99 0.33 1.98 0.66 3 1 C1.21328523 4.19327746 -0.60079753 7.2279485 -3 10 C-6.375 10.5625 -6.375 10.5625 -9 10 C-3.59778598 1.91881919 -3.59778598 1.91881919 0 0 Z " fill="#474853" transform="translate(199,220)"/>
<path d="M0 0 C0.99 0.33 1.98 0.66 3 1 C2.34 2.65 1.68 4.3 1 6 C-1.97 5.505 -1.97 5.505 -5 5 C-5.33 5.99 -5.66 6.98 -6 8 C-9 7 -9 7 -10.6875 3.9375 C-11.120625 2.968125 -11.55375 1.99875 -12 1 C-10.0625 1.375 -10.0625 1.375 -8 2 C-7.67 2.66 -7.34 3.32 -7 4 C-6.67 3.67 -6.34 3.34 -6 3 C-3.66055264 3.28730055 -1.3260857 3.61936779 1 4 C0.67 2.68 0.34 1.36 0 0 Z " fill="#2A99C9" transform="translate(211,186)"/>
<path d="M0 0 C-0.45375 0.4125 -0.9075 0.825 -1.375 1.25 C-3.05950374 3.06408095 -3.99265971 4.75285627 -5 7 C-5.66 5.68 -6.32 4.36 -7 3 C-7.99 4.485 -7.99 4.485 -9 6 C-8.34 6.33 -7.68 6.66 -7 7 C-7.33 7.66 -7.66 8.32 -8 9 C-8.66 9 -9.32 9 -10 9 C-10.33 9.66 -10.66 10.32 -11 11 C-11.3125 8.3125 -11.3125 8.3125 -11 5 C-5.40780142 -1.62234043 -5.40780142 -1.62234043 0 0 Z " fill="#52555F" transform="translate(387,159)"/>
<path d="M0 0 C1.65 1.65 3.3 3.3 5 5 C1.93882432 7.62386487 1.26826873 8 -3 8 C-3.36923077 3.44615385 -3.36923077 3.44615385 -1.5 1.1875 C-1.005 0.795625 -0.51 0.40375 0 0 Z " fill="#3B3F4D" transform="translate(166,245)"/>
<path d="M0 0 C1.65 1.32 3.3 2.64 5 4 C4.34 5.98 3.68 7.96 3 10 C4.65 10 6.3 10 8 10 C8 10.33 8 10.66 8 11 C5.69 11.33 3.38 11.66 1 12 C1 9.36 1 6.72 1 4 C0.34 4 -0.32 4 -1 4 C-0.67 2.68 -0.34 1.36 0 0 Z " fill="#0C6187" transform="translate(127,146)"/>
<path d="M0 0 C0.66 0 1.32 0 2 0 C2.66 0.99 3.32 1.98 4 3 C4.99 3.33 5.98 3.66 7 4 C7 4.66 7 5.32 7 6 C3.04 6 -0.92 6 -5 6 C-5 5.34 -5 4.68 -5 4 C-4.360625 3.71125 -3.72125 3.4225 -3.0625 3.125 C-0.84793921 2.17176549 -0.84793921 2.17176549 0 0 Z " fill="#1992C4" transform="translate(186,188)"/>
<path d="M0 0 C3.96 0 7.92 0 12 0 C12 0.66 12 1.32 12 2 C8.04 3.98 8.04 3.98 4 6 C3.67 5.01 3.34 4.02 3 3 C2.01 2.67 1.02 2.34 0 2 C0 1.34 0 0.68 0 0 Z " fill="#3B3E49" transform="translate(326,159)"/>
<path d="M0 0 C0.66 0.33 1.32 0.66 2 1 C1.67 1.33 1.34 1.66 1 2 C1.66 2.33 2.32 2.66 3 3 C3.33 2.34 3.66 1.68 4 1 C5.32 2.32 6.64 3.64 8 5 C7.34 5.66 6.68 6.32 6 7 C1.71 5.35 -2.58 3.7 -7 2 C-5.68 1.67 -4.36 1.34 -3 1 C-2.01 0.67 -1.02 0.34 0 0 Z " fill="#464956" transform="translate(167,52)"/>
<path d="M0 0 C2.96052484 3.36423277 3.92289822 6.69159287 5 11 C4.34 11 3.68 11 3 11 C2.67 10.01 2.34 9.02 2 8 C1.34 10.64 0.68 13.28 0 16 C-0.33 16 -0.66 16 -1 16 C-1.11138159 10.54230189 -0.91657981 5.38490641 0 0 Z " fill="#B8EEFB" transform="translate(190,167)"/>
<path d="M0 0 C2.31 0 4.62 0 7 0 C6.50168276 3.68754757 5.89932357 5.60490662 3 8 C0 3.375 0 3.375 0 0 Z " fill="#EEF2F5" transform="translate(310,161)"/>
<path d="M0 0 C-0.75 6.625 -0.75 6.625 -3 10 C-5 7 -5 7 -5 4 C-5.66 3.67 -6.32 3.34 -7 3 C-2.25 0 -2.25 0 0 0 Z " fill="#3D3F4B" transform="translate(186,198)"/>
<path d="M0 0 C0.78375 0.04125 1.5675 0.0825 2.375 0.125 C2.375 2.125 2.375 2.125 0.5625 4 C-0.159375 4.70125 -0.88125 5.4025 -1.625 6.125 C-2.64823436 7.44058703 -3.65626968 8.76877755 -4.625 10.125 C-5.285 9.795 -5.945 9.465 -6.625 9.125 C-4.3125 0.20535714 -4.3125 0.20535714 0 0 Z " fill="#4A4D57" transform="translate(321.625,158.875)"/>
<path d="M0 0 C-3.465 2.97 -3.465 2.97 -7 6 C-8.32 4.68 -9.64 3.36 -11 2 C-4.5 -1.125 -4.5 -1.125 0 0 Z " fill="#1E95C9" transform="translate(213,116)"/>
<path d="M0 0 C1 2 1 2 0.4375 5.4375 C-1 9 -1 9 -3.9375 11 C-7 12 -7 12 -10 11 C-9.278125 10.484375 -8.55625 9.96875 -7.8125 9.4375 C-4.49943158 6.56617403 -2.44284263 3.6293662 0 0 Z " fill="#4B4D58" transform="translate(181,242)"/>
<path d="M0 0 C3.21524305 1.40844718 5.32183868 3.10344786 7.75 5.625 C8.67039063 6.57246094 8.67039063 6.57246094 9.609375 7.5390625 C10.29773438 8.26222656 10.29773438 8.26222656 11 9 C10.01 9 9.02 9 8 9 C7.195625 8.154375 6.39125 7.30875 5.5625 6.4375 C4.716875 5.633125 3.87125 4.82875 3 4 C0.88850355 3.92357291 0.88850355 3.92357291 -1 5 C-2.11375 5.5259375 -2.11375 5.5259375 -3.25 6.0625 C-3.8275 6.371875 -4.405 6.68125 -5 7 C-3.70700306 4.11562221 -2.34058637 2.12780579 0 0 Z " fill="#2F333F" transform="translate(204,69)"/>
<path d="M0 0 C-1.20381448 2.49361571 -2.45428722 4.68143083 -4 7 C-7.625 8.1875 -7.625 8.1875 -11 9 C-10.07161713 7.68103535 -9.13194268 6.37001311 -8.1875 5.0625 C-7.66542969 4.33160156 -7.14335937 3.60070312 -6.60546875 2.84765625 C-4.61231944 0.55383721 -3.03219523 0 0 0 Z " fill="#E4E7EA" transform="translate(170,239)"/>
<path d="M0 0 C0.33 0.66 0.66 1.32 1 2 C3.52733235 2.65555119 3.52733235 2.65555119 6 3 C6 6 6 6 4 8.1875 C3.01 9.0846875 3.01 9.0846875 2 10 C2 8.35 2 6.7 2 5 C-0.9254644 4.7763932 -0.9254644 4.7763932 -3 6 C-1.125 1.125 -1.125 1.125 0 0 Z " fill="#424553" transform="translate(173,235)"/>
<path d="M0 0 C0.93065133 2.60582371 1.14917407 3.64198224 0.0625 6.25 C-0.4634375 7.11625 -0.4634375 7.11625 -1 8 C-3.475 7.01 -3.475 7.01 -6 6 C-6 5.01 -6 4.02 -6 3 C-2.66666667 0 -2.66666667 0 0 0 Z " fill="#303544" transform="translate(180,231)"/>
<path d="M0 0 C0.33 0.99 0.66 1.98 1 3 C-0.32 3 -1.64 3 -3 3 C-2.67 5.31 -2.34 7.62 -2 10 C-1.01 10.33 -0.02 10.66 1 11 C0.01 11.99 -0.98 12.98 -2 14 C-2.69906942 12.40084119 -3.38389468 10.79544955 -4.0625 9.1875 C-4.44535156 8.29417969 -4.82820313 7.40085937 -5.22265625 6.48046875 C-6 4 -6 4 -5 1 C-2 0 -2 0 0 0 Z " fill="#2E98C7" transform="translate(93,64)"/>
<path d="M0 0 C1.32 0.33 2.64 0.66 4 1 C2.50902342 4.7952131 0.24299151 6.61042731 -3 9 C-3.66 8.67 -4.32 8.34 -5 8 C-3.35 5.36 -1.7 2.72 0 0 Z " fill="#4A4D56" transform="translate(198,241)"/>
<path d="M0 0 C0.99 0 1.98 0 3 0 C4.04449911 3.13349732 3.93423645 3.98968256 3 7 C2.34 7 1.68 7 1 7 C1 6.34 1 5.68 1 5 C-0.65 5.66 -2.3 6.32 -4 7 C-2.79618552 4.50638429 -1.54571278 2.31856917 0 0 Z " fill="#323546" transform="translate(184,222)"/>
<path d="M0 0 C0.33 1.98 0.66 3.96 1 6 C0.01 6.495 0.01 6.495 -1 7 C-1 5.68 -1 4.36 -1 3 C-1.886875 3.33 -2.77375 3.66 -3.6875 4 C-6.70923347 4.91222143 -8.88373706 5.18330958 -12 5 C-9.9330412 2.9330412 -8.69369158 2.35542451 -6 1.375 C-5.29875 1.11460937 -4.5975 0.85421875 -3.875 0.5859375 C-2 0 -2 0 0 0 Z " fill="#359BC4" transform="translate(51,180)"/>
<path d="M0 0 C0.33 0.66 0.66 1.32 1 2 C-0.98 4.64 -2.96 7.28 -5 10 C-5.66 9.67 -6.32 9.34 -7 9 C-6.82374165 6.62051228 -6.30280227 5.29774151 -4.59765625 3.62109375 C-3.09350908 2.37884514 -1.54870149 1.18623944 0 0 Z " fill="#F1F4F6" transform="translate(180,241)"/>
<path d="M0 0 C0 0.66 0 1.32 0 2 C-0.66 2 -1.32 2 -2 2 C-2.66 3.32 -3.32 4.64 -4 6 C-4.99 5.67 -5.98 5.34 -7 5 C-7.6875 2.9375 -7.6875 2.9375 -8 1 C-5.29120665 -0.35439668 -2.99066732 -0.06501451 0 0 Z " fill="#4A4D58" transform="translate(200,212)"/>
<path d="M0 0 C0.66 1.32 1.32 2.64 2 4 C1 5 1 5 -1.72265625 5.09765625 C-3.37587891 5.08025391 -3.37587891 5.08025391 -5.0625 5.0625 C-6.16722656 5.05347656 -7.27195312 5.04445312 -8.41015625 5.03515625 C-9.69212891 5.01775391 -9.69212891 5.01775391 -11 5 C-8.60236815 2.60236815 -7.66726502 2.65719414 -4.375 2.375 C-3.55773437 2.30023438 -2.74046875 2.22546875 -1.8984375 2.1484375 C-1.27195312 2.09945312 -0.64546875 2.05046875 0 2 C0 1.34 0 0.68 0 0 Z " fill="#4C4D57" transform="translate(393,189)"/>
<path d="M0 0 C2 1.8125 2 1.8125 4 4 C4 4.99 4 5.98 4 7 C3.01 7.33 2.02 7.66 1 8 C-0.5625 6.75 -0.5625 6.75 -2 5 C-1.74853421 2.86254078 -1.54074221 1.54074221 0 0 Z " fill="#1B96D1" transform="translate(59,84)"/>
<path d="M0 0 C1.32 0.33 2.64 0.66 4 1 C3.34 1.66 2.68 2.32 2 3 C1.63105418 5.03060659 1.63105418 5.03060659 1.5859375 7.3515625 C1.54726562 8.20234375 1.50859375 9.053125 1.46875 9.9296875 C1.4378125 10.81914063 1.406875 11.70859375 1.375 12.625 C1.33632812 13.5221875 1.29765625 14.419375 1.2578125 15.34375 C1.16340643 17.5622927 1.07783252 19.78082403 1 22 C0.67 22 0.34 22 0 22 C0 14.74 0 7.48 0 0 Z " fill="#0D94CD" transform="translate(121,59)"/>
<path d="M0 0 C0.66 0.99 1.32 1.98 2 3 C1.01 3.66 0.02 4.32 -1 5 C-1.38394667 7.77262255 -1.60342248 10.34323528 -1.6875 13.125 C-1.72166016 13.87910156 -1.75582031 14.63320312 -1.79101562 15.41015625 C-1.87354278 17.27291201 -1.93844711 19.13643326 -2 21 C-2.33 21 -2.66 21 -3 21 C-3 15.06 -3 9.12 -3 3 C-2.01 2.67 -1.02 2.34 0 2 C0 1.34 0 0.68 0 0 Z " fill="#C7F3FB" transform="translate(228,159)"/>
<path d="M0 0 C3.96 0 7.92 0 12 0 C11.67 0.99 11.34 1.98 11 3 C8.03 2.67 5.06 2.34 2 2 C1.67 2.66 1.34 3.32 1 4 C0.67 2.68 0.34 1.36 0 0 Z " fill="#33363E" transform="translate(307,159)"/>
<path d="M0 0 C0.33 0 0.66 0 1 0 C1 3.3 1 6.6 1 10 C1.66 10 2.32 10 3 10 C2.34 11.32 1.68 12.64 1 14 C0.67 13.34 0.34 12.68 0 12 C-2.12576782 11.53348793 -2.12576782 11.53348793 -4.5625 11.375 C-5.38878906 11.30023438 -6.21507812 11.22546875 -7.06640625 11.1484375 C-7.70449219 11.09945312 -8.34257812 11.05046875 -9 11 C-9 10.67 -9 10.34 -9 10 C-6.03 10 -3.06 10 0 10 C0 6.7 0 3.4 0 0 Z " fill="#C5F0F9" transform="translate(195,148)"/>
<path d="M0 0 C0.99 0.33 1.98 0.66 3 1 C3 2.65 3 4.3 3 6 C1.02 6.99 1.02 6.99 -1 8 C-1.93065133 5.39417629 -2.14917407 4.35801776 -1.0625 1.75 C-0.711875 1.1725 -0.36125 0.595 0 0 Z " fill="#373B49" transform="translate(396,185)"/>
<path d="M0 0 C0.99 0.33 1.98 0.66 3 1 C2.01 1.495 2.01 1.495 1 2 C1.185625 3.11375 1.37125 4.2275 1.5625 5.375 C2 9 2 9 1 11 C0.34 11 -0.32 11 -1 11 C-1.125 3.375 -1.125 3.375 0 0 Z " fill="#379BC6" transform="translate(107,158)"/>
<path d="M0 0 C0 0.99 0 1.98 0 3 C-0.825 3.804375 -1.65 4.60875 -2.5 5.4375 C-5.46554923 7.88052115 -5.46554923 7.88052115 -5 12 C-5.99 11.67 -6.98 11.34 -8 11 C-7.52653165 6.73878485 -5.03860562 4.81626862 -2 2 C-1.34 1.34 -0.68 0.68 0 0 Z " fill="#252A36" transform="translate(27,194)"/>
<path d="M0 0 C0.66 0 1.32 0 2 0 C1.47731534 2.76276177 0.89130413 5.3260876 0 8 C-0.66 8 -1.32 8 -2 8 C-2 7.34 -2 6.68 -2 6 C-2.66 6 -3.32 6 -4 6 C-4 5.34 -4 4.68 -4 4 C-3.34 4 -2.68 4 -2 4 C-1.34 2.68 -0.68 1.36 0 0 Z " fill="#279AD1" transform="translate(209,177)"/>
<path d="M0 0 C5.75 1.75 5.75 1.75 8 4 C6.35 4.66 4.7 5.32 3 6 C1.68 4.35 0.36 2.7 -1 1 C-0.67 0.67 -0.34 0.34 0 0 Z " fill="#269CCD" transform="translate(39,113)"/>
<path d="M0 0 C4.4729103 1.98796013 8.16161102 4.24337546 10.3125 8.75 C10.6528125 9.86375 10.6528125 9.86375 11 11 C9 11 9 11 7.34375 9.35546875 C6.7353125 8.64003906 6.126875 7.92460937 5.5 7.1875 C4.8915625 6.47980469 4.283125 5.77210938 3.65625 5.04296875 C2 3 2 3 0 0 Z " fill="#252A37" transform="translate(153,231)"/>
<path d="M0 0 C0.99 0 1.98 0 3 0 C2.67 1.65 2.34 3.3 2 5 C0.68 5 -0.64 5 -2 5 C-2 2 -2 2 0 0 Z " fill="#1695CC" transform="translate(184,92)"/>
<path d="M0 0 C0.99 0 1.98 0 3 0 C2.42415568 2.38564077 1.77772405 4.66682784 1 7 C-0.32 6.67 -1.64 6.34 -3 6 C-2.01 4.02 -1.02 2.04 0 0 Z " fill="#0397D7" transform="translate(160,67)"/>
<path d="M0 0 C2.97 0.495 2.97 0.495 6 1 C4.68 2.32 3.36 3.64 2 5 C1.01 4.67 0.02 4.34 -1 4 C-0.67 2.68 -0.34 1.36 0 0 Z " fill="#353A48" transform="translate(200,238)"/>
<path d="M0 0 C1.32 0.99 2.64 1.98 4 3 C3.25 5.4375 3.25 5.4375 2 8 C0.68 8.33 -0.64 8.66 -2 9 C-1.34 6.03 -0.68 3.06 0 0 Z " fill="#5A5D65" transform="translate(329,162)"/>
<path d="M0 0 C0.66 0 1.32 0 2 0 C2 2.97 2 5.94 2 9 C0.68 8.67 -0.64 8.34 -2 8 C-1.67 7.01 -1.34 6.02 -1 5 C-0.65179959 3.33637583 -0.31595508 1.67004829 0 0 Z " fill="#45474F" transform="translate(443,185)"/>
<path d="M0 0 C0.99 0.495 0.99 0.495 2 1 C3.33059914 4.99179743 2.81502739 7.26317891 1 11 C0.67 11 0.34 11 0 11 C0 7.37 0 3.74 0 0 Z " fill="#CAECFA" transform="translate(268,171)"/>
<path d="M0 0 C1.32 0 2.64 0 4 0 C4 1.98 4 3.96 4 6 C3.01 6 2.02 6 1 6 C0.67 4.02 0.34 2.04 0 0 Z " fill="#0A6085" transform="translate(135,150)"/>
<path d="M0 0 C0.6875 1.6875 0.6875 1.6875 1 4 C-0.375 6.75 -0.375 6.75 -2 9 C-2.33 9 -2.66 9 -3 9 C-3.36923077 3.46153846 -3.36923077 3.46153846 -1.5 1.125 C-1.005 0.75375 -0.51 0.3825 0 0 Z " fill="#3096C0" transform="translate(120,147)"/>
<path d="M0 0 C2.97 1.98 2.97 1.98 6 4 C3 6 3 6 0 6 C-0.38218767 4.34385343 -0.71395102 2.67542976 -1 1 C-0.67 0.67 -0.34 0.34 0 0 Z " fill="#2193C2" transform="translate(200,119)"/>
<path d="M0 0 C0.99 0.33 1.98 0.66 3 1 C2.34 2.65 1.68 4.3 1 6 C0.01 5.67 -0.98 5.34 -2 5 C-2.33 4.01 -2.66 3.02 -3 2 C-2.01 1.34 -1.02 0.68 0 0 Z " fill="#373A47" transform="translate(192,229)"/>
<path d="M0 0 C1.65 0 3.3 0 5 0 C5 2.31 5 4.62 5 7 C4.34 7 3.68 7 3 7 C2.01 4.69 1.02 2.38 0 0 Z " fill="#3797C5" transform="translate(266,160)"/>
<path d="M0 0 C3.3 0.33 6.6 0.66 10 1 C9.01 1.33 8.02 1.66 7 2 C6.67 2.66 6.34 3.32 6 4 C3.69 3.34 1.38 2.68 -1 2 C-0.67 1.34 -0.34 0.68 0 0 Z " fill="#42444D" transform="translate(387,158)"/>
<path d="M0 0 C4.29 0.33 8.58 0.66 13 1 C13 1.33 13 1.66 13 2 C6.565 2.495 6.565 2.495 0 3 C0 2.01 0 1.02 0 0 Z " fill="#4D99BD" transform="translate(159,152)"/>
<path d="M0 0 C1.98 1.65 3.96 3.3 6 5 C3 6 3 6 0.8125 5.0625 C0.214375 4.711875 -0.38375 4.36125 -1 4 C-0.67 2.68 -0.34 1.36 0 0 Z " fill="#2083B2" transform="translate(38,115)"/>
<path d="M0 0 C2 2 2 2 2 5 C0.02 5.66 -1.96 6.32 -4 7 C-2.79618552 4.50638429 -1.54571278 2.31856917 0 0 Z " fill="#309BCC" transform="translate(96,73)"/>
<path d="M0 0 C2.64 0 5.28 0 8 0 C6.515 1.98 6.515 1.98 5 4 C1.125 2.25 1.125 2.25 0 0 Z " fill="#323642" transform="translate(122,38)"/>
<path d="M0 0 C0.99 0 1.98 0 3 0 C3 3.63 3 7.26 3 11 C2.67 11 2.34 11 2 11 C1.87625 9.865625 1.7525 8.73125 1.625 7.5625 C1.41875 6.386875 1.2125 5.21125 1 4 C0.34 3.67 -0.32 3.34 -1 3 C-0.67 2.01 -0.34 1.02 0 0 Z " fill="#606269" transform="translate(438,171)"/>
<path d="M0 0 C0.33 0 0.66 0 1 0 C1 1.98 1 3.96 1 6 C-0.98 6.99 -0.98 6.99 -3 8 C-1.125 1.125 -1.125 1.125 0 0 Z " fill="#C2F6FE" transform="translate(216,167)"/>
<path d="M0 0 C1.9375 0.8125 1.9375 0.8125 4 2 C4.33 2.99 4.66 3.98 5 5 C2.5625 4.625 2.5625 4.625 0 4 C-0.33 3.34 -0.66 2.68 -1 2 C-0.67 1.34 -0.34 0.68 0 0 Z " fill="#2493C4" transform="translate(155,75)"/>
<path d="M0 0 C0.66 0 1.32 0 2 0 C2 1.98 2 3.96 2 6 C-1 6 -1 6 -3 5 C-1.625 2.5 -1.625 2.5 0 0 Z " fill="#43A1C6" transform="translate(271,185)"/>
<path d="M0 0 C0.66 0 1.32 0 2 0 C2.66 1.65 3.32 3.3 4 5 C3.01 5.33 2.02 5.66 1 6 C0.34 5.67 -0.32 5.34 -1 5 C-0.67 3.35 -0.34 1.7 0 0 Z " fill="#313544" transform="translate(378,166)"/>
<path d="M0 0 C0.66 0 1.32 0 2 0 C2.33 1.65 2.66 3.3 3 5 C2.34 5 1.68 5 1 5 C0.67 5.66 0.34 6.32 0 7 C-1.125 2.25 -1.125 2.25 0 0 Z " fill="#1E98D0" transform="translate(215,161)"/>
<path d="M0 0 C1.1725131 0.95117134 2.33787015 1.91117009 3.5 2.875 C4.47453125 3.67550781 4.47453125 3.67550781 5.46875 4.4921875 C5.9740625 4.98976563 6.479375 5.48734375 7 6 C7 6.66 7 7.32 7 8 C3.64379729 6.61122646 1.92701272 5.08322035 0 2 C0 1.34 0 0.68 0 0 Z " fill="#262B39" transform="translate(22,99)"/>
</svg>
