<svg width="200" height="200" viewBox="0 0 200 200" xmlns="http://www.w3.org/2000/svg">
  <!-- Clock face -->
  <circle cx="100" cy="100" r="95" fill="#fefefe" stroke="#fff" stroke-width="4"/>

  <!-- Hour marks -->
  <g stroke="#222" stroke-width="2">
    <!-- 12 marks -->
    <line x1="100" y1="10" x2="100" y2="20"/>
    <line x1="100" y1="180" x2="100" y2="190"/>
    <line x1="10" y1="100" x2="20" y2="100"/>
    <line x1="180" y1="100" x2="190" y2="100"/>
    <line x1="147" y1="147" x2="154" y2="154"/>
    <line x1="53" y1="53" x2="46" y2="46"/>
    <line x1="147" y1="53" x2="154" y2="46"/>
    <line x1="53" y1="147" x2="46" y2="154"/>
    <line x1="100" y1="30" x2="100" y2="35"/>
    <line x1="100" y1="165" x2="100" y2="170"/>
    <line x1="30" y1="100" x2="35" y2="100"/>
    <line x1="165" y1="100" x2="170" y2="100"/>
  </g>

  <!-- Hour hand (pointing to 3) -->
  <line x1="100" y1="100" x2="160" y2="100" stroke="#222" stroke-width="6" stroke-linecap="round"/>

  <!-- Minute hand (pointing to 12, making 90° angle with hour hand) -->
  <line x1="100" y1="100" x2="100" y2="40" stroke="#222" stroke-width="4" stroke-linecap="round"/>

  <!-- Center dot -->
  <circle cx="100" cy="100" r="4" fill="#fff"/>
</svg>
